<svg width="472" height="309" viewBox="0 0 472 309" fill="none" xmlns="http://www.w3.org/2000/svg">
<path d="M355.01 69.34C355.722 69.34 356.3 68.7625 356.3 68.05C356.3 67.3376 355.722 66.76 355.01 66.76C354.298 66.76 353.72 67.3376 353.72 68.05C353.72 68.7625 354.298 69.34 355.01 69.34Z" fill="#0047FF"/>
<path d="M366.47 69.34C367.182 69.34 367.76 68.7625 367.76 68.05C367.76 67.3376 367.182 66.76 366.47 66.76C365.757 66.76 365.18 67.3376 365.18 68.05C365.18 68.7625 365.757 69.34 366.47 69.34Z" fill="#0047FF"/>
<path d="M377.92 69.34C378.632 69.34 379.21 68.7625 379.21 68.05C379.21 67.3376 378.632 66.76 377.92 66.76C377.207 66.76 376.63 67.3376 376.63 68.05C376.63 68.7625 377.207 69.34 377.92 69.34Z" fill="#0047FF"/>
<path d="M389.37 69.34C390.083 69.34 390.66 68.7625 390.66 68.05C390.66 67.3376 390.083 66.76 389.37 66.76C388.658 66.76 388.08 67.3376 388.08 68.05C388.08 68.7625 388.658 69.34 389.37 69.34Z" fill="#0047FF"/>
<path d="M400.82 69.34C401.532 69.34 402.11 68.7625 402.11 68.05C402.11 67.3376 401.532 66.76 400.82 66.76C400.108 66.76 399.53 67.3376 399.53 68.05C399.53 68.7625 400.108 69.34 400.82 69.34Z" fill="#0047FF"/>
<path d="M412.27 69.34C412.982 69.34 413.56 68.7625 413.56 68.05C413.56 67.3376 412.982 66.76 412.27 66.76C411.558 66.76 410.98 67.3376 410.98 68.05C410.98 68.7625 411.558 69.34 412.27 69.34Z" fill="#0047FF"/>
<path d="M423.73 69.34C424.442 69.34 425.02 68.7625 425.02 68.05C425.02 67.3376 424.442 66.76 423.73 66.76C423.018 66.76 422.44 67.3376 422.44 68.05C422.44 68.7625 423.018 69.34 423.73 69.34Z" fill="#0047FF"/>
<path d="M435.18 69.34C435.893 69.34 436.47 68.7625 436.47 68.05C436.47 67.3376 435.893 66.76 435.18 66.76C434.468 66.76 433.89 67.3376 433.89 68.05C433.89 68.7625 434.468 69.34 435.18 69.34Z" fill="#0047FF"/>
<path d="M446.63 69.34C447.343 69.34 447.92 68.7625 447.92 68.05C447.92 67.3376 447.343 66.76 446.63 66.76C445.918 66.76 445.34 67.3376 445.34 68.05C445.34 68.7625 445.918 69.34 446.63 69.34Z" fill="#0047FF"/>
<path d="M366.47 57.8901C367.182 57.8901 367.76 57.3125 367.76 56.6001C367.76 55.8876 367.182 55.3101 366.47 55.3101C365.757 55.3101 365.18 55.8876 365.18 56.6001C365.18 57.3125 365.757 57.8901 366.47 57.8901Z" fill="#0047FF"/>
<path d="M377.92 57.8901C378.632 57.8901 379.21 57.3125 379.21 56.6001C379.21 55.8876 378.632 55.3101 377.92 55.3101C377.207 55.3101 376.63 55.8876 376.63 56.6001C376.63 57.3125 377.207 57.8901 377.92 57.8901Z" fill="#0047FF"/>
<path d="M389.37 57.8901C390.083 57.8901 390.66 57.3125 390.66 56.6001C390.66 55.8876 390.083 55.3101 389.37 55.3101C388.658 55.3101 388.08 55.8876 388.08 56.6001C388.08 57.3125 388.658 57.8901 389.37 57.8901Z" fill="#0047FF"/>
<path d="M400.82 57.8901C401.532 57.8901 402.11 57.3125 402.11 56.6001C402.11 55.8876 401.532 55.3101 400.82 55.3101C400.108 55.3101 399.53 55.8876 399.53 56.6001C399.53 57.3125 400.108 57.8901 400.82 57.8901Z" fill="#0047FF"/>
<path d="M412.27 57.8901C412.982 57.8901 413.56 57.3125 413.56 56.6001C413.56 55.8876 412.982 55.3101 412.27 55.3101C411.558 55.3101 410.98 55.8876 410.98 56.6001C410.98 57.3125 411.558 57.8901 412.27 57.8901Z" fill="#0047FF"/>
<path d="M423.73 57.8901C424.442 57.8901 425.02 57.3125 425.02 56.6001C425.02 55.8876 424.442 55.3101 423.73 55.3101C423.018 55.3101 422.44 55.8876 422.44 56.6001C422.44 57.3125 423.018 57.8901 423.73 57.8901Z" fill="#0047FF"/>
<path d="M435.18 57.8901C435.893 57.8901 436.47 57.3125 436.47 56.6001C436.47 55.8876 435.893 55.3101 435.18 55.3101C434.468 55.3101 433.89 55.8876 433.89 56.6001C433.89 57.3125 434.468 57.8901 435.18 57.8901Z" fill="#0047FF"/>
<path d="M366.47 46.44C367.182 46.44 367.76 45.8624 367.76 45.15C367.76 44.4375 367.182 43.86 366.47 43.86C365.757 43.86 365.18 44.4375 365.18 45.15C365.18 45.8624 365.757 46.44 366.47 46.44Z" fill="#0047FF"/>
<path d="M377.92 46.44C378.632 46.44 379.21 45.8624 379.21 45.15C379.21 44.4375 378.632 43.86 377.92 43.86C377.207 43.86 376.63 44.4375 376.63 45.15C376.63 45.8624 377.207 46.44 377.92 46.44Z" fill="#0047FF"/>
<path d="M389.37 46.44C390.083 46.44 390.66 45.8624 390.66 45.15C390.66 44.4375 390.083 43.86 389.37 43.86C388.658 43.86 388.08 44.4375 388.08 45.15C388.08 45.8624 388.658 46.44 389.37 46.44Z" fill="#0047FF"/>
<path d="M400.82 46.44C401.532 46.44 402.11 45.8624 402.11 45.15C402.11 44.4375 401.532 43.86 400.82 43.86C400.108 43.86 399.53 44.4375 399.53 45.15C399.53 45.8624 400.108 46.44 400.82 46.44Z" fill="#0047FF"/>
<path d="M412.27 46.44C412.982 46.44 413.56 45.8624 413.56 45.15C413.56 44.4375 412.982 43.86 412.27 43.86C411.558 43.86 410.98 44.4375 410.98 45.15C410.98 45.8624 411.558 46.44 412.27 46.44Z" fill="#0047FF"/>
<path d="M423.73 46.44C424.442 46.44 425.02 45.8624 425.02 45.15C425.02 44.4375 424.442 43.86 423.73 43.86C423.018 43.86 422.44 44.4375 422.44 45.15C422.44 45.8624 423.018 46.44 423.73 46.44Z" fill="#0047FF"/>
<path d="M435.18 46.44C435.893 46.44 436.47 45.8624 436.47 45.15C436.47 44.4375 435.893 43.86 435.18 43.86C434.468 43.86 433.89 44.4375 433.89 45.15C433.89 45.8624 434.468 46.44 435.18 46.44Z" fill="#0047FF"/>
<path d="M389.37 34.98C390.083 34.98 390.66 34.4025 390.66 33.69C390.66 32.9776 390.083 32.4 389.37 32.4C388.658 32.4 388.08 32.9776 388.08 33.69C388.08 34.4025 388.658 34.98 389.37 34.98Z" fill="#0047FF"/>
<path d="M400.82 34.98C401.532 34.98 402.11 34.4025 402.11 33.69C402.11 32.9776 401.532 32.4 400.82 32.4C400.108 32.4 399.53 32.9776 399.53 33.69C399.53 34.4025 400.108 34.98 400.82 34.98Z" fill="#0047FF"/>
<path d="M412.27 34.98C412.982 34.98 413.56 34.4025 413.56 33.69C413.56 32.9776 412.982 32.4 412.27 32.4C411.558 32.4 410.98 32.9776 410.98 33.69C410.98 34.4025 411.558 34.98 412.27 34.98Z" fill="#0047FF"/>
<path d="M355.01 80.7899C355.722 80.7899 356.3 80.2124 356.3 79.5C356.3 78.7875 355.722 78.21 355.01 78.21C354.298 78.21 353.72 78.7875 353.72 79.5C353.72 80.2124 354.298 80.7899 355.01 80.7899Z" fill="#0047FF"/>
<path d="M366.47 80.7899C367.182 80.7899 367.76 80.2124 367.76 79.5C367.76 78.7875 367.182 78.21 366.47 78.21C365.757 78.21 365.18 78.7875 365.18 79.5C365.18 80.2124 365.757 80.7899 366.47 80.7899Z" fill="#0047FF"/>
<path d="M377.92 80.7899C378.632 80.7899 379.21 80.2124 379.21 79.5C379.21 78.7875 378.632 78.21 377.92 78.21C377.207 78.21 376.63 78.7875 376.63 79.5C376.63 80.2124 377.207 80.7899 377.92 80.7899Z" fill="#0047FF"/>
<path d="M389.37 80.7899C390.083 80.7899 390.66 80.2124 390.66 79.5C390.66 78.7875 390.083 78.21 389.37 78.21C388.658 78.21 388.08 78.7875 388.08 79.5C388.08 80.2124 388.658 80.7899 389.37 80.7899Z" fill="#0047FF"/>
<path d="M400.82 80.7899C401.532 80.7899 402.11 80.2124 402.11 79.5C402.11 78.7875 401.532 78.21 400.82 78.21C400.108 78.21 399.53 78.7875 399.53 79.5C399.53 80.2124 400.108 80.7899 400.82 80.7899Z" fill="#0047FF"/>
<path d="M412.27 80.7899C412.982 80.7899 413.56 80.2124 413.56 79.5C413.56 78.7875 412.982 78.21 412.27 78.21C411.558 78.21 410.98 78.7875 410.98 79.5C410.98 80.2124 411.558 80.7899 412.27 80.7899Z" fill="#0047FF"/>
<path d="M423.73 80.7899C424.442 80.7899 425.02 80.2124 425.02 79.5C425.02 78.7875 424.442 78.21 423.73 78.21C423.018 78.21 422.44 78.7875 422.44 79.5C422.44 80.2124 423.018 80.7899 423.73 80.7899Z" fill="#0047FF"/>
<path d="M435.18 80.7899C435.893 80.7899 436.47 80.2124 436.47 79.5C436.47 78.7875 435.893 78.21 435.18 78.21C434.468 78.21 433.89 78.7875 433.89 79.5C433.89 80.2124 434.468 80.7899 435.18 80.7899Z" fill="#0047FF"/>
<path d="M446.63 80.7899C447.343 80.7899 447.92 80.2124 447.92 79.5C447.92 78.7875 447.343 78.21 446.63 78.21C445.918 78.21 445.34 78.7875 445.34 79.5C445.34 80.2124 445.918 80.7899 446.63 80.7899Z" fill="#0047FF"/>
<path d="M355.01 92.25C355.722 92.25 356.3 91.6725 356.3 90.9601C356.3 90.2476 355.722 89.67 355.01 89.67C354.298 89.67 353.72 90.2476 353.72 90.9601C353.72 91.6725 354.298 92.25 355.01 92.25Z" fill="#0047FF"/>
<path d="M366.47 92.25C367.182 92.25 367.76 91.6725 367.76 90.9601C367.76 90.2476 367.182 89.67 366.47 89.67C365.757 89.67 365.18 90.2476 365.18 90.9601C365.18 91.6725 365.757 92.25 366.47 92.25Z" fill="#0047FF"/>
<path d="M377.92 92.25C378.632 92.25 379.21 91.6725 379.21 90.9601C379.21 90.2476 378.632 89.67 377.92 89.67C377.207 89.67 376.63 90.2476 376.63 90.9601C376.63 91.6725 377.207 92.25 377.92 92.25Z" fill="#0047FF"/>
<path d="M389.37 92.25C390.083 92.25 390.66 91.6725 390.66 90.9601C390.66 90.2476 390.083 89.67 389.37 89.67C388.658 89.67 388.08 90.2476 388.08 90.9601C388.08 91.6725 388.658 92.25 389.37 92.25Z" fill="#0047FF"/>
<path d="M400.82 92.25C401.532 92.25 402.11 91.6725 402.11 90.9601C402.11 90.2476 401.532 89.67 400.82 89.67C400.108 89.67 399.53 90.2476 399.53 90.9601C399.53 91.6725 400.108 92.25 400.82 92.25Z" fill="#0047FF"/>
<path d="M412.27 92.25C412.982 92.25 413.56 91.6725 413.56 90.9601C413.56 90.2476 412.982 89.67 412.27 89.67C411.558 89.67 410.98 90.2476 410.98 90.9601C410.98 91.6725 411.558 92.25 412.27 92.25Z" fill="#0047FF"/>
<path d="M423.73 92.25C424.442 92.25 425.02 91.6725 425.02 90.9601C425.02 90.2476 424.442 89.67 423.73 89.67C423.018 89.67 422.44 90.2476 422.44 90.9601C422.44 91.6725 423.018 92.25 423.73 92.25Z" fill="#0047FF"/>
<path d="M435.18 92.25C435.893 92.25 436.47 91.6725 436.47 90.9601C436.47 90.2476 435.893 89.67 435.18 89.67C434.468 89.67 433.89 90.2476 433.89 90.9601C433.89 91.6725 434.468 92.25 435.18 92.25Z" fill="#0047FF"/>
<path d="M446.63 92.25C447.343 92.25 447.92 91.6725 447.92 90.9601C447.92 90.2476 447.343 89.67 446.63 89.67C445.918 89.67 445.34 90.2476 445.34 90.9601C445.34 91.6725 445.918 92.25 446.63 92.25Z" fill="#0047FF"/>
<path d="M366.47 103.7C367.182 103.7 367.76 103.122 367.76 102.41C367.76 101.698 367.182 101.12 366.47 101.12C365.757 101.12 365.18 101.698 365.18 102.41C365.18 103.122 365.757 103.7 366.47 103.7Z" fill="#0047FF"/>
<path d="M377.92 103.7C378.632 103.7 379.21 103.122 379.21 102.41C379.21 101.698 378.632 101.12 377.92 101.12C377.207 101.12 376.63 101.698 376.63 102.41C376.63 103.122 377.207 103.7 377.92 103.7Z" fill="#0047FF"/>
<path d="M389.37 103.7C390.083 103.7 390.66 103.122 390.66 102.41C390.66 101.698 390.083 101.12 389.37 101.12C388.658 101.12 388.08 101.698 388.08 102.41C388.08 103.122 388.658 103.7 389.37 103.7Z" fill="#0047FF"/>
<path d="M400.82 103.7C401.532 103.7 402.11 103.122 402.11 102.41C402.11 101.698 401.532 101.12 400.82 101.12C400.108 101.12 399.53 101.698 399.53 102.41C399.53 103.122 400.108 103.7 400.82 103.7Z" fill="#0047FF"/>
<path d="M412.27 103.7C412.982 103.7 413.56 103.122 413.56 102.41C413.56 101.698 412.982 101.12 412.27 101.12C411.558 101.12 410.98 101.698 410.98 102.41C410.98 103.122 411.558 103.7 412.27 103.7Z" fill="#0047FF"/>
<path d="M423.73 103.7C424.442 103.7 425.02 103.122 425.02 102.41C425.02 101.698 424.442 101.12 423.73 101.12C423.018 101.12 422.44 101.698 422.44 102.41C422.44 103.122 423.018 103.7 423.73 103.7Z" fill="#0047FF"/>
<path d="M435.18 103.7C435.893 103.7 436.47 103.122 436.47 102.41C436.47 101.698 435.893 101.12 435.18 101.12C434.468 101.12 433.89 101.698 433.89 102.41C433.89 103.122 434.468 103.7 435.18 103.7Z" fill="#0047FF"/>
<path d="M366.47 115.15C367.182 115.15 367.76 114.573 367.76 113.86C367.76 113.148 367.182 112.57 366.47 112.57C365.757 112.57 365.18 113.148 365.18 113.86C365.18 114.573 365.757 115.15 366.47 115.15Z" fill="#0047FF"/>
<path d="M377.92 115.15C378.632 115.15 379.21 114.573 379.21 113.86C379.21 113.148 378.632 112.57 377.92 112.57C377.207 112.57 376.63 113.148 376.63 113.86C376.63 114.573 377.207 115.15 377.92 115.15Z" fill="#0047FF"/>
<path d="M389.37 115.15C390.083 115.15 390.66 114.573 390.66 113.86C390.66 113.148 390.083 112.57 389.37 112.57C388.658 112.57 388.08 113.148 388.08 113.86C388.08 114.573 388.658 115.15 389.37 115.15Z" fill="#0047FF"/>
<path d="M400.82 115.15C401.532 115.15 402.11 114.573 402.11 113.86C402.11 113.148 401.532 112.57 400.82 112.57C400.108 112.57 399.53 113.148 399.53 113.86C399.53 114.573 400.108 115.15 400.82 115.15Z" fill="#0047FF"/>
<path d="M412.27 115.15C412.982 115.15 413.56 114.573 413.56 113.86C413.56 113.148 412.982 112.57 412.27 112.57C411.558 112.57 410.98 113.148 410.98 113.86C410.98 114.573 411.558 115.15 412.27 115.15Z" fill="#0047FF"/>
<path d="M423.73 115.15C424.442 115.15 425.02 114.573 425.02 113.86C425.02 113.148 424.442 112.57 423.73 112.57C423.018 112.57 422.44 113.148 422.44 113.86C422.44 114.573 423.018 115.15 423.73 115.15Z" fill="#0047FF"/>
<path d="M435.18 115.15C435.893 115.15 436.47 114.573 436.47 113.86C436.47 113.148 435.893 112.57 435.18 112.57C434.468 112.57 433.89 113.148 433.89 113.86C433.89 114.573 434.468 115.15 435.18 115.15Z" fill="#0047FF"/>
<path d="M389.37 126.6C390.083 126.6 390.66 126.022 390.66 125.31C390.66 124.598 390.083 124.02 389.37 124.02C388.658 124.02 388.08 124.598 388.08 125.31C388.08 126.022 388.658 126.6 389.37 126.6Z" fill="#0047FF"/>
<path d="M400.82 126.6C401.532 126.6 402.11 126.022 402.11 125.31C402.11 124.598 401.532 124.02 400.82 124.02C400.108 124.02 399.53 124.598 399.53 125.31C399.53 126.022 400.108 126.6 400.82 126.6Z" fill="#0047FF"/>
<path d="M412.27 126.6C412.982 126.6 413.56 126.022 413.56 125.31C413.56 124.598 412.982 124.02 412.27 124.02C411.558 124.02 410.98 124.598 410.98 125.31C410.98 126.022 411.558 126.6 412.27 126.6Z" fill="#0047FF"/>
<path d="M158.72 44.0699V144.85C158.72 150.28 161.92 154.68 165.85 154.68H178.27" stroke="#162753" stroke-miterlimit="10"/>
<path d="M183.56 164C189.795 164 194.85 158.945 194.85 152.71C194.85 146.475 189.795 141.42 183.56 141.42C177.325 141.42 172.27 146.475 172.27 152.71C172.27 158.945 177.325 164 183.56 164Z" fill="white" stroke="#162753" stroke-miterlimit="10"/>
<path d="M183.56 158.27C186.631 158.27 189.12 155.781 189.12 152.71C189.12 149.639 186.631 147.15 183.56 147.15C180.489 147.15 178 149.639 178 152.71C178 155.781 180.489 158.27 183.56 158.27Z" fill="white" stroke="#162753" stroke-miterlimit="10"/>
<path d="M1.3601 293.23C1.91791 293.23 2.3701 292.778 2.3701 292.22C2.3701 291.662 1.91791 291.21 1.3601 291.21C0.80229 291.21 0.350098 291.662 0.350098 292.22C0.350098 292.778 0.80229 293.23 1.3601 293.23Z" fill="#0047FF"/>
<path d="M11.48 293.23C12.0378 293.23 12.49 292.778 12.49 292.22C12.49 291.662 12.0378 291.21 11.48 291.21C10.9222 291.21 10.47 291.662 10.47 292.22C10.47 292.778 10.9222 293.23 11.48 293.23Z" fill="#0047FF"/>
<path d="M21.6001 293.23C22.1579 293.23 22.6101 292.778 22.6101 292.22C22.6101 291.662 22.1579 291.21 21.6001 291.21C21.0423 291.21 20.5901 291.662 20.5901 292.22C20.5901 292.778 21.0423 293.23 21.6001 293.23Z" fill="#0047FF"/>
<path d="M31.73 293.23C32.2878 293.23 32.74 292.778 32.74 292.22C32.74 291.662 32.2878 291.21 31.73 291.21C31.1722 291.21 30.72 291.662 30.72 292.22C30.72 292.778 31.1722 293.23 31.73 293.23Z" fill="#0047FF"/>
<path d="M41.8501 293.23C42.4079 293.23 42.8601 292.778 42.8601 292.22C42.8601 291.662 42.4079 291.21 41.8501 291.21C41.2923 291.21 40.8401 291.662 40.8401 292.22C40.8401 292.778 41.2923 293.23 41.8501 293.23Z" fill="#0047FF"/>
<path d="M51.97 293.23C52.5278 293.23 52.98 292.778 52.98 292.22C52.98 291.662 52.5278 291.21 51.97 291.21C51.4122 291.21 50.96 291.662 50.96 292.22C50.96 292.778 51.4122 293.23 51.97 293.23Z" fill="#0047FF"/>
<path d="M62.0901 293.23C62.6479 293.23 63.1001 292.778 63.1001 292.22C63.1001 291.662 62.6479 291.21 62.0901 291.21C61.5323 291.21 61.0801 291.662 61.0801 292.22C61.0801 292.778 61.5323 293.23 62.0901 293.23Z" fill="#0047FF"/>
<path d="M72.21 293.23C72.7678 293.23 73.22 292.778 73.22 292.22C73.22 291.662 72.7678 291.21 72.21 291.21C71.6521 291.21 71.2 291.662 71.2 292.22C71.2 292.778 71.6521 293.23 72.21 293.23Z" fill="#0047FF"/>
<path d="M82.3301 293.23C82.8879 293.23 83.3401 292.778 83.3401 292.22C83.3401 291.662 82.8879 291.21 82.3301 291.21C81.7723 291.21 81.3201 291.662 81.3201 292.22C81.3201 292.778 81.7723 293.23 82.3301 293.23Z" fill="#0047FF"/>
<path d="M92.4499 293.23C93.0077 293.23 93.4599 292.778 93.4599 292.22C93.4599 291.662 93.0077 291.21 92.4499 291.21C91.8921 291.21 91.4399 291.662 91.4399 292.22C91.4399 292.778 91.8921 293.23 92.4499 293.23Z" fill="#0047FF"/>
<path d="M102.57 293.23C103.128 293.23 103.58 292.778 103.58 292.22C103.58 291.662 103.128 291.21 102.57 291.21C102.012 291.21 101.56 291.662 101.56 292.22C101.56 292.778 102.012 293.23 102.57 293.23Z" fill="#0047FF"/>
<path d="M1.3601 283.1C1.91791 283.1 2.3701 282.648 2.3701 282.09C2.3701 281.532 1.91791 281.08 1.3601 281.08C0.80229 281.08 0.350098 281.532 0.350098 282.09C0.350098 282.648 0.80229 283.1 1.3601 283.1Z" fill="#0047FF"/>
<path d="M11.48 283.1C12.0378 283.1 12.49 282.648 12.49 282.09C12.49 281.532 12.0378 281.08 11.48 281.08C10.9222 281.08 10.47 281.532 10.47 282.09C10.47 282.648 10.9222 283.1 11.48 283.1Z" fill="#0047FF"/>
<path d="M21.6001 283.1C22.1579 283.1 22.6101 282.648 22.6101 282.09C22.6101 281.532 22.1579 281.08 21.6001 281.08C21.0423 281.08 20.5901 281.532 20.5901 282.09C20.5901 282.648 21.0423 283.1 21.6001 283.1Z" fill="#0047FF"/>
<path d="M31.73 283.1C32.2878 283.1 32.74 282.648 32.74 282.09C32.74 281.532 32.2878 281.08 31.73 281.08C31.1722 281.08 30.72 281.532 30.72 282.09C30.72 282.648 31.1722 283.1 31.73 283.1Z" fill="#0047FF"/>
<path d="M41.8501 283.1C42.4079 283.1 42.8601 282.648 42.8601 282.09C42.8601 281.532 42.4079 281.08 41.8501 281.08C41.2923 281.08 40.8401 281.532 40.8401 282.09C40.8401 282.648 41.2923 283.1 41.8501 283.1Z" fill="#0047FF"/>
<path d="M51.97 283.1C52.5278 283.1 52.98 282.648 52.98 282.09C52.98 281.532 52.5278 281.08 51.97 281.08C51.4122 281.08 50.96 281.532 50.96 282.09C50.96 282.648 51.4122 283.1 51.97 283.1Z" fill="#0047FF"/>
<path d="M62.0901 283.1C62.6479 283.1 63.1001 282.648 63.1001 282.09C63.1001 281.532 62.6479 281.08 62.0901 281.08C61.5323 281.08 61.0801 281.532 61.0801 282.09C61.0801 282.648 61.5323 283.1 62.0901 283.1Z" fill="#0047FF"/>
<path d="M72.21 283.1C72.7678 283.1 73.22 282.648 73.22 282.09C73.22 281.532 72.7678 281.08 72.21 281.08C71.6521 281.08 71.2 281.532 71.2 282.09C71.2 282.648 71.6521 283.1 72.21 283.1Z" fill="#0047FF"/>
<path d="M82.3301 283.1C82.8879 283.1 83.3401 282.648 83.3401 282.09C83.3401 281.532 82.8879 281.08 82.3301 281.08C81.7723 281.08 81.3201 281.532 81.3201 282.09C81.3201 282.648 81.7723 283.1 82.3301 283.1Z" fill="#0047FF"/>
<path d="M92.4499 283.1C93.0077 283.1 93.4599 282.648 93.4599 282.09C93.4599 281.532 93.0077 281.08 92.4499 281.08C91.8921 281.08 91.4399 281.532 91.4399 282.09C91.4399 282.648 91.8921 283.1 92.4499 283.1Z" fill="#0047FF"/>
<path d="M102.57 283.1C103.128 283.1 103.58 282.648 103.58 282.09C103.58 281.532 103.128 281.08 102.57 281.08C102.012 281.08 101.56 281.532 101.56 282.09C101.56 282.648 102.012 283.1 102.57 283.1Z" fill="#0047FF"/>
<path d="M1.3601 272.98C1.91791 272.98 2.3701 272.528 2.3701 271.97C2.3701 271.412 1.91791 270.96 1.3601 270.96C0.80229 270.96 0.350098 271.412 0.350098 271.97C0.350098 272.528 0.80229 272.98 1.3601 272.98Z" fill="#0047FF"/>
<path d="M11.48 272.98C12.0378 272.98 12.49 272.528 12.49 271.97C12.49 271.412 12.0378 270.96 11.48 270.96C10.9222 270.96 10.47 271.412 10.47 271.97C10.47 272.528 10.9222 272.98 11.48 272.98Z" fill="#0047FF"/>
<path d="M21.6001 272.98C22.1579 272.98 22.6101 272.528 22.6101 271.97C22.6101 271.412 22.1579 270.96 21.6001 270.96C21.0423 270.96 20.5901 271.412 20.5901 271.97C20.5901 272.528 21.0423 272.98 21.6001 272.98Z" fill="#0047FF"/>
<path d="M31.73 272.98C32.2878 272.98 32.74 272.528 32.74 271.97C32.74 271.412 32.2878 270.96 31.73 270.96C31.1722 270.96 30.72 271.412 30.72 271.97C30.72 272.528 31.1722 272.98 31.73 272.98Z" fill="#0047FF"/>
<path d="M41.8501 272.98C42.4079 272.98 42.8601 272.528 42.8601 271.97C42.8601 271.412 42.4079 270.96 41.8501 270.96C41.2923 270.96 40.8401 271.412 40.8401 271.97C40.8401 272.528 41.2923 272.98 41.8501 272.98Z" fill="#0047FF"/>
<path d="M51.97 272.98C52.5278 272.98 52.98 272.528 52.98 271.97C52.98 271.412 52.5278 270.96 51.97 270.96C51.4122 270.96 50.96 271.412 50.96 271.97C50.96 272.528 51.4122 272.98 51.97 272.98Z" fill="#0047FF"/>
<path d="M62.0901 272.98C62.6479 272.98 63.1001 272.528 63.1001 271.97C63.1001 271.412 62.6479 270.96 62.0901 270.96C61.5323 270.96 61.0801 271.412 61.0801 271.97C61.0801 272.528 61.5323 272.98 62.0901 272.98Z" fill="#0047FF"/>
<path d="M72.21 272.98C72.7678 272.98 73.22 272.528 73.22 271.97C73.22 271.412 72.7678 270.96 72.21 270.96C71.6521 270.96 71.2 271.412 71.2 271.97C71.2 272.528 71.6521 272.98 72.21 272.98Z" fill="#0047FF"/>
<path d="M82.3301 272.98C82.8879 272.98 83.3401 272.528 83.3401 271.97C83.3401 271.412 82.8879 270.96 82.3301 270.96C81.7723 270.96 81.3201 271.412 81.3201 271.97C81.3201 272.528 81.7723 272.98 82.3301 272.98Z" fill="#0047FF"/>
<path d="M92.4499 272.98C93.0077 272.98 93.4599 272.528 93.4599 271.97C93.4599 271.412 93.0077 270.96 92.4499 270.96C91.8921 270.96 91.4399 271.412 91.4399 271.97C91.4399 272.528 91.8921 272.98 92.4499 272.98Z" fill="#0047FF"/>
<path d="M102.57 272.98C103.128 272.98 103.58 272.528 103.58 271.97C103.58 271.412 103.128 270.96 102.57 270.96C102.012 270.96 101.56 271.412 101.56 271.97C101.56 272.528 102.012 272.98 102.57 272.98Z" fill="#0047FF"/>
<path d="M1.3601 262.86C1.91791 262.86 2.3701 262.408 2.3701 261.85C2.3701 261.292 1.91791 260.84 1.3601 260.84C0.80229 260.84 0.350098 261.292 0.350098 261.85C0.350098 262.408 0.80229 262.86 1.3601 262.86Z" fill="#0047FF"/>
<path d="M11.48 262.86C12.0378 262.86 12.49 262.408 12.49 261.85C12.49 261.292 12.0378 260.84 11.48 260.84C10.9222 260.84 10.47 261.292 10.47 261.85C10.47 262.408 10.9222 262.86 11.48 262.86Z" fill="#0047FF"/>
<path d="M21.6001 262.86C22.1579 262.86 22.6101 262.408 22.6101 261.85C22.6101 261.292 22.1579 260.84 21.6001 260.84C21.0423 260.84 20.5901 261.292 20.5901 261.85C20.5901 262.408 21.0423 262.86 21.6001 262.86Z" fill="#0047FF"/>
<path d="M31.73 262.86C32.2878 262.86 32.74 262.408 32.74 261.85C32.74 261.292 32.2878 260.84 31.73 260.84C31.1722 260.84 30.72 261.292 30.72 261.85C30.72 262.408 31.1722 262.86 31.73 262.86Z" fill="#0047FF"/>
<path d="M41.8501 262.86C42.4079 262.86 42.8601 262.408 42.8601 261.85C42.8601 261.292 42.4079 260.84 41.8501 260.84C41.2923 260.84 40.8401 261.292 40.8401 261.85C40.8401 262.408 41.2923 262.86 41.8501 262.86Z" fill="#0047FF"/>
<path d="M51.97 262.86C52.5278 262.86 52.98 262.408 52.98 261.85C52.98 261.292 52.5278 260.84 51.97 260.84C51.4122 260.84 50.96 261.292 50.96 261.85C50.96 262.408 51.4122 262.86 51.97 262.86Z" fill="#0047FF"/>
<path d="M62.0901 262.86C62.6479 262.86 63.1001 262.408 63.1001 261.85C63.1001 261.292 62.6479 260.84 62.0901 260.84C61.5323 260.84 61.0801 261.292 61.0801 261.85C61.0801 262.408 61.5323 262.86 62.0901 262.86Z" fill="#0047FF"/>
<path d="M72.21 262.86C72.7678 262.86 73.22 262.408 73.22 261.85C73.22 261.292 72.7678 260.84 72.21 260.84C71.6521 260.84 71.2 261.292 71.2 261.85C71.2 262.408 71.6521 262.86 72.21 262.86Z" fill="#0047FF"/>
<path d="M82.3301 262.86C82.8879 262.86 83.3401 262.408 83.3401 261.85C83.3401 261.292 82.8879 260.84 82.3301 260.84C81.7723 260.84 81.3201 261.292 81.3201 261.85C81.3201 262.408 81.7723 262.86 82.3301 262.86Z" fill="#0047FF"/>
<path d="M92.4499 262.86C93.0077 262.86 93.4599 262.408 93.4599 261.85C93.4599 261.292 93.0077 260.84 92.4499 260.84C91.8921 260.84 91.4399 261.292 91.4399 261.85C91.4399 262.408 91.8921 262.86 92.4499 262.86Z" fill="#0047FF"/>
<path d="M102.57 262.86C103.128 262.86 103.58 262.408 103.58 261.85C103.58 261.292 103.128 260.84 102.57 260.84C102.012 260.84 101.56 261.292 101.56 261.85C101.56 262.408 102.012 262.86 102.57 262.86Z" fill="#0047FF"/>
<path d="M1.3601 252.74C1.91791 252.74 2.3701 252.288 2.3701 251.73C2.3701 251.172 1.91791 250.72 1.3601 250.72C0.80229 250.72 0.350098 251.172 0.350098 251.73C0.350098 252.288 0.80229 252.74 1.3601 252.74Z" fill="#0047FF"/>
<path d="M11.48 252.74C12.0378 252.74 12.49 252.288 12.49 251.73C12.49 251.172 12.0378 250.72 11.48 250.72C10.9222 250.72 10.47 251.172 10.47 251.73C10.47 252.288 10.9222 252.74 11.48 252.74Z" fill="#0047FF"/>
<path d="M21.6001 252.74C22.1579 252.74 22.6101 252.288 22.6101 251.73C22.6101 251.172 22.1579 250.72 21.6001 250.72C21.0423 250.72 20.5901 251.172 20.5901 251.73C20.5901 252.288 21.0423 252.74 21.6001 252.74Z" fill="#0047FF"/>
<path d="M31.73 252.74C32.2878 252.74 32.74 252.288 32.74 251.73C32.74 251.172 32.2878 250.72 31.73 250.72C31.1722 250.72 30.72 251.172 30.72 251.73C30.72 252.288 31.1722 252.74 31.73 252.74Z" fill="#0047FF"/>
<path d="M41.8501 252.74C42.4079 252.74 42.8601 252.288 42.8601 251.73C42.8601 251.172 42.4079 250.72 41.8501 250.72C41.2923 250.72 40.8401 251.172 40.8401 251.73C40.8401 252.288 41.2923 252.74 41.8501 252.74Z" fill="#0047FF"/>
<path d="M51.97 252.74C52.5278 252.74 52.98 252.288 52.98 251.73C52.98 251.172 52.5278 250.72 51.97 250.72C51.4122 250.72 50.96 251.172 50.96 251.73C50.96 252.288 51.4122 252.74 51.97 252.74Z" fill="#0047FF"/>
<path d="M62.0901 252.74C62.6479 252.74 63.1001 252.288 63.1001 251.73C63.1001 251.172 62.6479 250.72 62.0901 250.72C61.5323 250.72 61.0801 251.172 61.0801 251.73C61.0801 252.288 61.5323 252.74 62.0901 252.74Z" fill="#0047FF"/>
<path d="M72.21 252.74C72.7678 252.74 73.22 252.288 73.22 251.73C73.22 251.172 72.7678 250.72 72.21 250.72C71.6521 250.72 71.2 251.172 71.2 251.73C71.2 252.288 71.6521 252.74 72.21 252.74Z" fill="#0047FF"/>
<path d="M82.3301 252.74C82.8879 252.74 83.3401 252.288 83.3401 251.73C83.3401 251.172 82.8879 250.72 82.3301 250.72C81.7723 250.72 81.3201 251.172 81.3201 251.73C81.3201 252.288 81.7723 252.74 82.3301 252.74Z" fill="#0047FF"/>
<path d="M92.4499 252.74C93.0077 252.74 93.4599 252.288 93.4599 251.73C93.4599 251.172 93.0077 250.72 92.4499 250.72C91.8921 250.72 91.4399 251.172 91.4399 251.73C91.4399 252.288 91.8921 252.74 92.4499 252.74Z" fill="#0047FF"/>
<path d="M102.57 252.74C103.128 252.74 103.58 252.288 103.58 251.73C103.58 251.172 103.128 250.72 102.57 250.72C102.012 250.72 101.56 251.172 101.56 251.73C101.56 252.288 102.012 252.74 102.57 252.74Z" fill="#0047FF"/>
<path d="M1.3601 242.62C1.91791 242.62 2.3701 242.168 2.3701 241.61C2.3701 241.052 1.91791 240.6 1.3601 240.6C0.80229 240.6 0.350098 241.052 0.350098 241.61C0.350098 242.168 0.80229 242.62 1.3601 242.62Z" fill="#0047FF"/>
<path d="M11.48 242.62C12.0378 242.62 12.49 242.168 12.49 241.61C12.49 241.052 12.0378 240.6 11.48 240.6C10.9222 240.6 10.47 241.052 10.47 241.61C10.47 242.168 10.9222 242.62 11.48 242.62Z" fill="#0047FF"/>
<path d="M21.6001 242.62C22.1579 242.62 22.6101 242.168 22.6101 241.61C22.6101 241.052 22.1579 240.6 21.6001 240.6C21.0423 240.6 20.5901 241.052 20.5901 241.61C20.5901 242.168 21.0423 242.62 21.6001 242.62Z" fill="#0047FF"/>
<path d="M31.73 242.62C32.2878 242.62 32.74 242.168 32.74 241.61C32.74 241.052 32.2878 240.6 31.73 240.6C31.1722 240.6 30.72 241.052 30.72 241.61C30.72 242.168 31.1722 242.62 31.73 242.62Z" fill="#0047FF"/>
<path d="M41.8501 242.62C42.4079 242.62 42.8601 242.168 42.8601 241.61C42.8601 241.052 42.4079 240.6 41.8501 240.6C41.2923 240.6 40.8401 241.052 40.8401 241.61C40.8401 242.168 41.2923 242.62 41.8501 242.62Z" fill="#0047FF"/>
<path d="M51.97 242.62C52.5278 242.62 52.98 242.168 52.98 241.61C52.98 241.052 52.5278 240.6 51.97 240.6C51.4122 240.6 50.96 241.052 50.96 241.61C50.96 242.168 51.4122 242.62 51.97 242.62Z" fill="#0047FF"/>
<path d="M62.0901 242.62C62.6479 242.62 63.1001 242.168 63.1001 241.61C63.1001 241.052 62.6479 240.6 62.0901 240.6C61.5323 240.6 61.0801 241.052 61.0801 241.61C61.0801 242.168 61.5323 242.62 62.0901 242.62Z" fill="#0047FF"/>
<path d="M72.21 242.62C72.7678 242.62 73.22 242.168 73.22 241.61C73.22 241.052 72.7678 240.6 72.21 240.6C71.6521 240.6 71.2 241.052 71.2 241.61C71.2 242.168 71.6521 242.62 72.21 242.62Z" fill="#0047FF"/>
<path d="M82.3301 242.62C82.8879 242.62 83.3401 242.168 83.3401 241.61C83.3401 241.052 82.8879 240.6 82.3301 240.6C81.7723 240.6 81.3201 241.052 81.3201 241.61C81.3201 242.168 81.7723 242.62 82.3301 242.62Z" fill="#0047FF"/>
<path d="M92.4499 242.62C93.0077 242.62 93.4599 242.168 93.4599 241.61C93.4599 241.052 93.0077 240.6 92.4499 240.6C91.8921 240.6 91.4399 241.052 91.4399 241.61C91.4399 242.168 91.8921 242.62 92.4499 242.62Z" fill="#0047FF"/>
<path d="M102.57 242.62C103.128 242.62 103.58 242.168 103.58 241.61C103.58 241.052 103.128 240.6 102.57 240.6C102.012 240.6 101.56 241.052 101.56 241.61C101.56 242.168 102.012 242.62 102.57 242.62Z" fill="#0047FF"/>
<path d="M1.3601 232.5C1.91791 232.5 2.3701 232.048 2.3701 231.49C2.3701 230.932 1.91791 230.48 1.3601 230.48C0.80229 230.48 0.350098 230.932 0.350098 231.49C0.350098 232.048 0.80229 232.5 1.3601 232.5Z" fill="#0047FF"/>
<path d="M11.48 232.5C12.0378 232.5 12.49 232.048 12.49 231.49C12.49 230.932 12.0378 230.48 11.48 230.48C10.9222 230.48 10.47 230.932 10.47 231.49C10.47 232.048 10.9222 232.5 11.48 232.5Z" fill="#0047FF"/>
<path d="M21.6001 232.5C22.1579 232.5 22.6101 232.048 22.6101 231.49C22.6101 230.932 22.1579 230.48 21.6001 230.48C21.0423 230.48 20.5901 230.932 20.5901 231.49C20.5901 232.048 21.0423 232.5 21.6001 232.5Z" fill="#0047FF"/>
<path d="M31.73 232.5C32.2878 232.5 32.74 232.048 32.74 231.49C32.74 230.932 32.2878 230.48 31.73 230.48C31.1722 230.48 30.72 230.932 30.72 231.49C30.72 232.048 31.1722 232.5 31.73 232.5Z" fill="#0047FF"/>
<path d="M41.8501 232.5C42.4079 232.5 42.8601 232.048 42.8601 231.49C42.8601 230.932 42.4079 230.48 41.8501 230.48C41.2923 230.48 40.8401 230.932 40.8401 231.49C40.8401 232.048 41.2923 232.5 41.8501 232.5Z" fill="#0047FF"/>
<path d="M51.97 232.5C52.5278 232.5 52.98 232.048 52.98 231.49C52.98 230.932 52.5278 230.48 51.97 230.48C51.4122 230.48 50.96 230.932 50.96 231.49C50.96 232.048 51.4122 232.5 51.97 232.5Z" fill="#0047FF"/>
<path d="M62.0901 232.5C62.6479 232.5 63.1001 232.048 63.1001 231.49C63.1001 230.932 62.6479 230.48 62.0901 230.48C61.5323 230.48 61.0801 230.932 61.0801 231.49C61.0801 232.048 61.5323 232.5 62.0901 232.5Z" fill="#0047FF"/>
<path d="M72.21 232.5C72.7678 232.5 73.22 232.048 73.22 231.49C73.22 230.932 72.7678 230.48 72.21 230.48C71.6521 230.48 71.2 230.932 71.2 231.49C71.2 232.048 71.6521 232.5 72.21 232.5Z" fill="#0047FF"/>
<path d="M82.3301 232.5C82.8879 232.5 83.3401 232.048 83.3401 231.49C83.3401 230.932 82.8879 230.48 82.3301 230.48C81.7723 230.48 81.3201 230.932 81.3201 231.49C81.3201 232.048 81.7723 232.5 82.3301 232.5Z" fill="#0047FF"/>
<path d="M92.4499 232.5C93.0077 232.5 93.4599 232.048 93.4599 231.49C93.4599 230.932 93.0077 230.48 92.4499 230.48C91.8921 230.48 91.4399 230.932 91.4399 231.49C91.4399 232.048 91.8921 232.5 92.4499 232.5Z" fill="#0047FF"/>
<path d="M102.57 232.5C103.128 232.5 103.58 232.048 103.58 231.49C103.58 230.932 103.128 230.48 102.57 230.48C102.012 230.48 101.56 230.932 101.56 231.49C101.56 232.048 102.012 232.5 102.57 232.5Z" fill="#0047FF"/>
<path d="M1.3601 222.38C1.91791 222.38 2.3701 221.928 2.3701 221.37C2.3701 220.812 1.91791 220.36 1.3601 220.36C0.80229 220.36 0.350098 220.812 0.350098 221.37C0.350098 221.928 0.80229 222.38 1.3601 222.38Z" fill="#0047FF"/>
<path d="M11.48 222.38C12.0378 222.38 12.49 221.928 12.49 221.37C12.49 220.812 12.0378 220.36 11.48 220.36C10.9222 220.36 10.47 220.812 10.47 221.37C10.47 221.928 10.9222 222.38 11.48 222.38Z" fill="#0047FF"/>
<path d="M21.6001 222.38C22.1579 222.38 22.6101 221.928 22.6101 221.37C22.6101 220.812 22.1579 220.36 21.6001 220.36C21.0423 220.36 20.5901 220.812 20.5901 221.37C20.5901 221.928 21.0423 222.38 21.6001 222.38Z" fill="#0047FF"/>
<path d="M31.73 222.38C32.2878 222.38 32.74 221.928 32.74 221.37C32.74 220.812 32.2878 220.36 31.73 220.36C31.1722 220.36 30.72 220.812 30.72 221.37C30.72 221.928 31.1722 222.38 31.73 222.38Z" fill="#0047FF"/>
<path d="M41.8501 222.38C42.4079 222.38 42.8601 221.928 42.8601 221.37C42.8601 220.812 42.4079 220.36 41.8501 220.36C41.2923 220.36 40.8401 220.812 40.8401 221.37C40.8401 221.928 41.2923 222.38 41.8501 222.38Z" fill="#0047FF"/>
<path d="M51.97 222.38C52.5278 222.38 52.98 221.928 52.98 221.37C52.98 220.812 52.5278 220.36 51.97 220.36C51.4122 220.36 50.96 220.812 50.96 221.37C50.96 221.928 51.4122 222.38 51.97 222.38Z" fill="#0047FF"/>
<path d="M62.0901 222.38C62.6479 222.38 63.1001 221.928 63.1001 221.37C63.1001 220.812 62.6479 220.36 62.0901 220.36C61.5323 220.36 61.0801 220.812 61.0801 221.37C61.0801 221.928 61.5323 222.38 62.0901 222.38Z" fill="#0047FF"/>
<path d="M72.21 222.38C72.7678 222.38 73.22 221.928 73.22 221.37C73.22 220.812 72.7678 220.36 72.21 220.36C71.6521 220.36 71.2 220.812 71.2 221.37C71.2 221.928 71.6521 222.38 72.21 222.38Z" fill="#0047FF"/>
<path d="M82.3301 222.38C82.8879 222.38 83.3401 221.928 83.3401 221.37C83.3401 220.812 82.8879 220.36 82.3301 220.36C81.7723 220.36 81.3201 220.812 81.3201 221.37C81.3201 221.928 81.7723 222.38 82.3301 222.38Z" fill="#0047FF"/>
<path d="M92.4499 222.38C93.0077 222.38 93.4599 221.928 93.4599 221.37C93.4599 220.812 93.0077 220.36 92.4499 220.36C91.8921 220.36 91.4399 220.812 91.4399 221.37C91.4399 221.928 91.8921 222.38 92.4499 222.38Z" fill="#0047FF"/>
<path d="M102.57 222.38C103.128 222.38 103.58 221.928 103.58 221.37C103.58 220.812 103.128 220.36 102.57 220.36C102.012 220.36 101.56 220.812 101.56 221.37C101.56 221.928 102.012 222.38 102.57 222.38Z" fill="#0047FF"/>
<path d="M169.4 225.18C169.4 225.18 23.1999 242.91 15.3999 244C15.3999 245.48 14.1299 249.14 19.5099 250.75C24.8899 252.36 179.89 301.61 187.43 304.3C194.97 306.99 203.84 309.95 213.8 307.3C222.59 304.92 333.8 278.46 359.69 272.3C361.187 271.94 362.509 271.064 363.424 269.826C364.338 268.588 364.787 267.066 364.69 265.53L363.79 262.14L169.4 225.18Z" fill="#0047FF" stroke="white" stroke-miterlimit="10"/>
<path d="M169.4 223.9C169.4 223.9 28.9301 243.54 21.1301 244.62C13.3301 245.7 14.1301 247.85 19.5101 249.46C24.8901 251.07 179.89 300.32 187.43 303C194.97 305.68 203.84 308.66 213.8 306L363.63 265.47C363.706 265.451 363.774 265.408 363.822 265.346C363.871 265.285 363.897 265.208 363.897 265.13C363.897 265.052 363.871 264.976 363.822 264.914C363.774 264.852 363.706 264.809 363.63 264.79L169.4 223.9Z" fill="white" stroke="#0047FF" stroke-miterlimit="10"/>
<path d="M202.24 82.23C202.24 82.23 169.24 209.33 167.08 216.71C164.92 224.09 167.4 223.36 173.61 224.71C179.82 226.06 349.83 262.57 356.34 263.13C362.85 263.69 369.19 264.45 371.24 256.35C373.29 248.25 410.33 89.9 411.63 82C412.93 74.1 411.63 67.87 399.53 68.06C387.43 68.25 223.59 74.06 214.69 74.43C205.79 74.8 203.76 77.3 202.24 82.23Z" fill="white" stroke="#0047FF" stroke-miterlimit="10"/>
<path d="M214.73 88.42L180.81 214.64L356.17 248.38L395.74 85.89L214.73 88.42Z" fill="#0047FF" stroke="white" stroke-miterlimit="10"/>
<path d="M150.38 283.6L70.6101 258.5L119.71 250.31L199.49 270.79L150.38 283.6Z" fill="white" stroke="#0047FF" stroke-miterlimit="10"/>
<path d="M172.65 253.3L158.41 255.86L171.5 259.17L186.07 256.42L172.65 253.3Z" fill="#162753"/>
<path d="M189.71 257.26L174.97 260.05L186.79 263.03L202.05 260.13L189.71 257.26Z" fill="#162753"/>
<path d="M139.98 245.7L127.05 247.94L138.92 250.94L152.37 248.58L139.98 245.7Z" fill="#162753"/>
<path d="M121.68 241.45L109.17 243.42L123.45 247.03L136.2 244.83L121.68 241.45Z" fill="#162753"/>
<path d="M156.12 249.46L142.5 251.84L154.87 254.97L168.94 252.44L156.12 249.46Z" fill="#162753"/>
<path d="M205.68 260.97L190.25 263.91L204.07 267.4L219.68 264.23L205.68 260.97Z" fill="#162753"/>
<path d="M241.72 269.35L225.87 272.9L240.38 276.57L256.2 272.71L241.72 269.35Z" fill="#162753"/>
<path d="M223.22 265.05L207.44 268.25L222.63 272.09L238.33 268.56L223.22 265.05Z" fill="#162753"/>
<path d="M307.19 269.67L318.38 272.26L328.29 269.86L316.8 267.21L307.19 269.67Z" fill="#162753"/>
<path d="M279.86 276.66L290.21 279.07L301.52 276.33L290.86 273.85L279.86 276.66Z" fill="#162753"/>
<path d="M294.03 273.04L304.79 275.54L315.11 273.05L304.01 270.49L294.03 273.04Z" fill="#162753"/>
<path d="M259.45 273.47L243.5 277.36L257.37 280.86L273.51 276.73L259.45 273.47Z" fill="#162753"/>
<path d="M103.31 237.19L103.32 237.18L91.0801 238.85L105.45 242.48L117.77 240.55L103.31 237.19Z" fill="#162753"/>
<path d="M268 254.41L276.77 252.63L264.1 249.85L255.4 251.51L268 254.41Z" fill="#162753"/>
<path d="M284.46 258.21L293.22 256.25L280.41 253.43L271.55 255.23L284.46 258.21Z" fill="#162753"/>
<path d="M287.38 265.11L297.24 262.7L284.46 259.75L274.18 262.06L287.38 265.11Z" fill="#162753"/>
<path d="M251.76 250.67L260.36 249.03L247.82 246.28L239.54 247.85L251.76 250.67Z" fill="#162753"/>
<path d="M331.56 269.07L341.13 266.76L328.99 264.1L319.98 266.4L331.56 269.07Z" fill="#162753"/>
<path d="M235.88 247.01L244.07 245.46L231.49 242.7L223.47 244.14L235.88 247.01Z" fill="#162753"/>
<path d="M316.79 265.66L325.72 263.38L312.62 260.5L303.76 262.66L316.79 265.66Z" fill="#162753"/>
<path d="M300.5 261.91L309.27 259.77L296.7 257.01L287.86 258.99L300.5 261.91Z" fill="#162753"/>
<path d="M135.61 237.74L122.12 234.6L107.48 236.61L121.74 239.92L135.61 237.74Z" fill="#162753"/>
<path d="M167.33 232.75L155.54 230.03L142.81 231.77L155.28 234.64L167.33 232.75Z" fill="#162753"/>
<path d="M178.28 231.02L166.75 228.49L159.75 229.45L171.32 232.12L178.28 231.02Z" fill="#162753"/>
<path d="M151.29 235.27L138.61 232.34L126.31 234.03L139.58 237.11L151.29 235.27Z" fill="#162753"/>
<path d="M203.72 239.59L211.28 238.26L198.84 235.53L191.58 236.79L203.72 239.59Z" fill="#162753"/>
<path d="M219.74 243.28L227.66 241.86L215.15 239.11L207.48 240.46L219.74 243.28Z" fill="#162753"/>
<path d="M187.78 235.92L194.94 234.68L182.33 231.91L175.25 233.02L187.78 235.92Z" fill="#162753"/>
<path d="M260.43 281.63L269.79 284L286.94 279.86L276.69 277.47L260.43 281.63Z" fill="#162753"/>
<path d="M173.16 246.47L159.91 248.79L172.69 251.76L185.76 249.4L173.16 246.47Z" fill="#162753"/>
<path d="M189.47 250.27L176.4 252.62L189.74 255.72L202.53 253.31L189.47 250.27Z" fill="#162753"/>
<path d="M157.12 242.74L143.8 245.05L156.16 247.92L169.41 245.6L157.12 242.74Z" fill="#162753"/>
<path d="M168.52 239.24L155.22 236.18L143.49 238.02L157.17 241.2L168.52 239.24Z" fill="#162753"/>
<path d="M206.17 254.15L193.38 256.57L205.71 259.43L218.45 257.01L206.17 254.15Z" fill="#162753"/>
<path d="M139.52 238.65L125.65 240.83L140.02 244.17L153.35 241.87L139.52 238.65Z" fill="#162753"/>
<path d="M277.23 269.13L290.84 272.3L300.81 269.75L287.39 266.65L277.23 269.13Z" fill="#162753"/>
<path d="M239.13 261.82L226.77 264.33L241.72 267.8L253.49 265.16L239.13 261.82Z" fill="#162753"/>
<path d="M200.82 246.69L188.34 243.81L176.95 245.81L189.51 248.73L200.82 246.69Z" fill="#162753"/>
<path d="M183.95 236.58L171.27 233.65L159.21 235.55L172.35 238.58L183.95 236.58Z" fill="#162753"/>
<path d="M290.65 265.86L303.99 268.94L313.61 266.48L300.5 263.46L290.65 265.86Z" fill="#162753"/>
<path d="M256.87 265.94L245.11 268.59L259.45 271.92L270.73 269.17L256.87 265.94Z" fill="#162753"/>
<path d="M262.7 272.68L276.68 275.92L287.68 273.11L273.98 269.93L262.7 272.68Z" fill="#162753"/>
<path d="M222.08 257.85L209.34 260.27L223.24 263.5L235.6 261L222.08 257.85Z" fill="#162753"/>
<path d="M250.09 258.05L236.94 255.02L225.74 257.15L239.15 260.27L250.09 258.05Z" fill="#162753"/>
<path d="M267.38 262.04L253.63 258.87L242.68 261.1L256.88 264.4L267.38 262.04Z" fill="#162753"/>
<path d="M233.3 254.18L221.01 251.35L209.84 253.46L222.11 256.31L233.3 254.18Z" fill="#162753"/>
<path d="M217.36 250.5L204.55 247.55L193.22 249.59L206.21 252.61L217.36 250.5Z" fill="#162753"/>
<path d="M188.38 242.28L199.91 240.26L187.74 237.45L176.15 239.45L188.38 242.28Z" fill="#162753"/>
<path d="M284.12 265.9L270.78 262.82L260.26 265.19L273.98 268.38L284.12 265.9Z" fill="#162753"/>
<path d="M160.94 242.08L173.2 244.94L184.57 242.94L172.31 240.12L160.94 242.08Z" fill="#162753"/>
<path d="M221.04 249.81L232.19 247.7L219.7 244.82L208.31 246.87L221.04 249.81Z" fill="#162753"/>
<path d="M236.98 253.48L248.09 251.37L235.85 248.55L224.7 250.65L236.98 253.48Z" fill="#162753"/>
<path d="M204.59 246.01L215.97 243.96L203.67 241.13L192.15 243.14L204.59 246.01Z" fill="#162753"/>
<path d="M253.65 257.33L264.44 255.14L251.73 252.21L240.62 254.32L253.65 257.33Z" fill="#162753"/>
<path d="M270.78 261.28L281.06 258.97L267.98 255.96L257.2 258.15L270.78 261.28Z" fill="#162753"/>
<path d="M448.88 83.4901L443.32 77.3201H426.55V83.4901V85.5801V107.07H471.84V83.4901H448.88Z" fill="#99B5FF"/>
<path d="M443.67 107.54V124.33C443.78 127.4 442.38 129.94 440.54 130.01L428.48 130.44C426.65 130.51 425.25 133.05 425.36 136.12L425.98 153.38" stroke="#162753" stroke-miterlimit="10"/>
<path d="M201.59 1.06006H129.21V45.5701H201.59V1.06006Z" stroke="#162753" stroke-miterlimit="10"/>
<path d="M204.08 2.39001H131.7V46.9H204.08V2.39001Z" fill="#162753"/>
<path d="M204.08 32.03H131.7V37.56H204.08V32.03Z" fill="white"/>
<path d="M196.65 6.41003H194.5C193.141 6.41003 192.04 7.51141 192.04 8.87003V11.02C192.04 12.3786 193.141 13.48 194.5 13.48H196.65C198.009 13.48 199.11 12.3786 199.11 11.02V8.87003C199.11 7.51141 198.009 6.41003 196.65 6.41003Z" fill="white" stroke="white" stroke-miterlimit="10"/>
<path d="M191.57 6.41003H189.42C188.061 6.41003 186.96 7.51141 186.96 8.87003V11.02C186.96 12.3786 188.061 13.48 189.42 13.48H191.57C192.929 13.48 194.03 12.3786 194.03 11.02V8.87003C194.03 7.51141 192.929 6.41003 191.57 6.41003Z" stroke="white" stroke-miterlimit="10"/>
<path d="M141.52 100.79H161.06" stroke="#162753" stroke-miterlimit="10"/>
<path d="M121.13 91.6099L115.57 85.4399H98.8V91.6099V93.7099V115.19H144.09V91.6099H121.13Z" fill="#0047FF"/>
<path d="M105.23 111.04C105.484 111.04 105.69 110.834 105.69 110.58C105.69 110.326 105.484 110.12 105.23 110.12C104.976 110.12 104.77 110.326 104.77 110.58C104.77 110.834 104.976 111.04 105.23 111.04Z" fill="white"/>
<path d="M109.87 111.04C110.124 111.04 110.33 110.834 110.33 110.58C110.33 110.326 110.124 110.12 109.87 110.12C109.616 110.12 109.41 110.326 109.41 110.58C109.41 110.834 109.616 111.04 109.87 111.04Z" fill="white"/>
<path d="M114.5 111.04C114.754 111.04 114.96 110.834 114.96 110.58C114.96 110.326 114.754 110.12 114.5 110.12C114.246 110.12 114.04 110.326 114.04 110.58C114.04 110.834 114.246 111.04 114.5 111.04Z" fill="white"/>
<path d="M119.13 111.04C119.384 111.04 119.59 110.834 119.59 110.58C119.59 110.326 119.384 110.12 119.13 110.12C118.876 110.12 118.67 110.326 118.67 110.58C118.67 110.834 118.876 111.04 119.13 111.04Z" fill="white"/>
<path d="M123.76 111.04C124.014 111.04 124.22 110.834 124.22 110.58C124.22 110.326 124.014 110.12 123.76 110.12C123.506 110.12 123.3 110.326 123.3 110.58C123.3 110.834 123.506 111.04 123.76 111.04Z" fill="white"/>
<path d="M128.39 111.04C128.644 111.04 128.85 110.834 128.85 110.58C128.85 110.326 128.644 110.12 128.39 110.12C128.136 110.12 127.93 110.326 127.93 110.58C127.93 110.834 128.136 111.04 128.39 111.04Z" fill="white"/>
<path d="M133.02 111.04C133.274 111.04 133.48 110.834 133.48 110.58C133.48 110.326 133.274 110.12 133.02 110.12C132.766 110.12 132.56 110.326 132.56 110.58C132.56 110.834 132.766 111.04 133.02 111.04Z" fill="white"/>
<path d="M137.65 111.04C137.904 111.04 138.11 110.834 138.11 110.58C138.11 110.326 137.904 110.12 137.65 110.12C137.396 110.12 137.19 110.326 137.19 110.58C137.19 110.834 137.396 111.04 137.65 111.04Z" fill="white"/>
<path d="M105.23 106.41C105.484 106.41 105.69 106.204 105.69 105.95C105.69 105.696 105.484 105.49 105.23 105.49C104.976 105.49 104.77 105.696 104.77 105.95C104.77 106.204 104.976 106.41 105.23 106.41Z" fill="white"/>
<path d="M109.87 106.41C110.124 106.41 110.33 106.204 110.33 105.95C110.33 105.696 110.124 105.49 109.87 105.49C109.616 105.49 109.41 105.696 109.41 105.95C109.41 106.204 109.616 106.41 109.87 106.41Z" fill="white"/>
<path d="M114.5 106.41C114.754 106.41 114.96 106.204 114.96 105.95C114.96 105.696 114.754 105.49 114.5 105.49C114.246 105.49 114.04 105.696 114.04 105.95C114.04 106.204 114.246 106.41 114.5 106.41Z" fill="white"/>
<path d="M119.13 106.41C119.384 106.41 119.59 106.204 119.59 105.95C119.59 105.696 119.384 105.49 119.13 105.49C118.876 105.49 118.67 105.696 118.67 105.95C118.67 106.204 118.876 106.41 119.13 106.41Z" fill="white"/>
<path d="M123.76 106.41C124.014 106.41 124.22 106.204 124.22 105.95C124.22 105.696 124.014 105.49 123.76 105.49C123.506 105.49 123.3 105.696 123.3 105.95C123.3 106.204 123.506 106.41 123.76 106.41Z" fill="white"/>
<path d="M128.39 106.41C128.644 106.41 128.85 106.204 128.85 105.95C128.85 105.696 128.644 105.49 128.39 105.49C128.136 105.49 127.93 105.696 127.93 105.95C127.93 106.204 128.136 106.41 128.39 106.41Z" fill="white"/>
<path d="M133.02 106.41C133.274 106.41 133.48 106.204 133.48 105.95C133.48 105.696 133.274 105.49 133.02 105.49C132.766 105.49 132.56 105.696 132.56 105.95C132.56 106.204 132.766 106.41 133.02 106.41Z" fill="white"/>
<path d="M137.65 106.41C137.904 106.41 138.11 106.204 138.11 105.95C138.11 105.696 137.904 105.49 137.65 105.49C137.396 105.49 137.19 105.696 137.19 105.95C137.19 106.204 137.396 106.41 137.65 106.41Z" fill="white"/>
<path d="M105.23 101.78C105.484 101.78 105.69 101.574 105.69 101.32C105.69 101.066 105.484 100.86 105.23 100.86C104.976 100.86 104.77 101.066 104.77 101.32C104.77 101.574 104.976 101.78 105.23 101.78Z" fill="white"/>
<path d="M109.87 101.78C110.124 101.78 110.33 101.574 110.33 101.32C110.33 101.066 110.124 100.86 109.87 100.86C109.616 100.86 109.41 101.066 109.41 101.32C109.41 101.574 109.616 101.78 109.87 101.78Z" fill="white"/>
<path d="M114.5 101.78C114.754 101.78 114.96 101.574 114.96 101.32C114.96 101.066 114.754 100.86 114.5 100.86C114.246 100.86 114.04 101.066 114.04 101.32C114.04 101.574 114.246 101.78 114.5 101.78Z" fill="white"/>
<path d="M119.13 101.78C119.384 101.78 119.59 101.574 119.59 101.32C119.59 101.066 119.384 100.86 119.13 100.86C118.876 100.86 118.67 101.066 118.67 101.32C118.67 101.574 118.876 101.78 119.13 101.78Z" fill="white"/>
<path d="M123.76 101.78C124.014 101.78 124.22 101.574 124.22 101.32C124.22 101.066 124.014 100.86 123.76 100.86C123.506 100.86 123.3 101.066 123.3 101.32C123.3 101.574 123.506 101.78 123.76 101.78Z" fill="white"/>
<path d="M128.39 101.78C128.644 101.78 128.85 101.574 128.85 101.32C128.85 101.066 128.644 100.86 128.39 100.86C128.136 100.86 127.93 101.066 127.93 101.32C127.93 101.574 128.136 101.78 128.39 101.78Z" fill="white"/>
<path d="M133.02 101.78C133.274 101.78 133.48 101.574 133.48 101.32C133.48 101.066 133.274 100.86 133.02 100.86C132.766 100.86 132.56 101.066 132.56 101.32C132.56 101.574 132.766 101.78 133.02 101.78Z" fill="white"/>
<path d="M137.65 101.78C137.904 101.78 138.11 101.574 138.11 101.32C138.11 101.066 137.904 100.86 137.65 100.86C137.396 100.86 137.19 101.066 137.19 101.32C137.19 101.574 137.396 101.78 137.65 101.78Z" fill="white"/>
<path d="M105.23 97.15C105.484 97.15 105.69 96.944 105.69 96.69C105.69 96.4359 105.484 96.23 105.23 96.23C104.976 96.23 104.77 96.4359 104.77 96.69C104.77 96.944 104.976 97.15 105.23 97.15Z" fill="white"/>
<path d="M109.87 97.15C110.124 97.15 110.33 96.944 110.33 96.69C110.33 96.4359 110.124 96.23 109.87 96.23C109.616 96.23 109.41 96.4359 109.41 96.69C109.41 96.944 109.616 97.15 109.87 97.15Z" fill="white"/>
<path d="M114.5 97.15C114.754 97.15 114.96 96.944 114.96 96.69C114.96 96.4359 114.754 96.23 114.5 96.23C114.246 96.23 114.04 96.4359 114.04 96.69C114.04 96.944 114.246 97.15 114.5 97.15Z" fill="white"/>
<path d="M119.13 97.15C119.384 97.15 119.59 96.944 119.59 96.69C119.59 96.4359 119.384 96.23 119.13 96.23C118.876 96.23 118.67 96.4359 118.67 96.69C118.67 96.944 118.876 97.15 119.13 97.15Z" fill="white"/>
<path d="M123.76 97.15C124.014 97.15 124.22 96.944 124.22 96.69C124.22 96.4359 124.014 96.23 123.76 96.23C123.506 96.23 123.3 96.4359 123.3 96.69C123.3 96.944 123.506 97.15 123.76 97.15Z" fill="white"/>
<path d="M128.39 97.15C128.644 97.15 128.85 96.944 128.85 96.69C128.85 96.4359 128.644 96.23 128.39 96.23C128.136 96.23 127.93 96.4359 127.93 96.69C127.93 96.944 128.136 97.15 128.39 97.15Z" fill="white"/>
<path d="M133.02 97.15C133.274 97.15 133.48 96.944 133.48 96.69C133.48 96.4359 133.274 96.23 133.02 96.23C132.766 96.23 132.56 96.4359 132.56 96.69C132.56 96.944 132.766 97.15 133.02 97.15Z" fill="white"/>
<path d="M137.65 97.15C137.904 97.15 138.11 96.944 138.11 96.69C138.11 96.4359 137.904 96.23 137.65 96.23C137.396 96.23 137.19 96.4359 137.19 96.69C137.19 96.944 137.396 97.15 137.65 97.15Z" fill="white"/>
<path d="M425.88 164C432.115 164 437.17 158.945 437.17 152.71C437.17 146.475 432.115 141.42 425.88 141.42C419.645 141.42 414.59 146.475 414.59 152.71C414.59 158.945 419.645 164 425.88 164Z" stroke="#162753" stroke-miterlimit="10"/>
<path d="M425.88 158.27C428.951 158.27 431.44 155.781 431.44 152.71C431.44 149.639 428.951 147.15 425.88 147.15C422.809 147.15 420.32 149.639 420.32 152.71C420.32 155.781 422.809 158.27 425.88 158.27Z" fill="#162753"/>
<path d="M449.6 152.33H323.42V234.06H449.6V152.33Z" stroke="#162753" stroke-miterlimit="10"/>
<path d="M456.05 154.48H328.73V238.54H456.05V154.48Z" fill="#162753"/>
<path d="M427.07 209.63H357.7C356.607 209.625 355.561 209.188 354.789 208.414C354.017 207.64 353.583 206.593 353.58 205.5C353.583 204.407 354.017 203.36 354.789 202.586C355.561 201.812 356.607 201.375 357.7 201.37H427.07C428.165 201.373 429.214 201.809 429.988 202.583C430.761 203.357 431.197 204.405 431.2 205.5C431.197 206.595 430.761 207.643 429.988 208.417C429.214 209.191 428.165 209.627 427.07 209.63Z" fill="white"/>
<path d="M427.07 222.92H357.7C356.607 222.915 355.561 222.478 354.789 221.704C354.017 220.93 353.583 219.883 353.58 218.79C353.583 217.698 354.018 216.652 354.79 215.88C355.562 215.108 356.608 214.673 357.7 214.67H427.07C428.163 214.673 429.21 215.107 429.984 215.879C430.758 216.651 431.195 217.697 431.2 218.79C431.197 219.885 430.761 220.934 429.988 221.707C429.214 222.481 428.165 222.917 427.07 222.92Z" fill="white"/>
<path d="M392.41 189.83C401.219 189.83 408.36 182.689 408.36 173.88C408.36 165.071 401.219 157.93 392.41 157.93C383.601 157.93 376.46 165.071 376.46 173.88C376.46 182.689 383.601 189.83 392.41 189.83Z" fill="white"/>
<path d="M392.43 173.23C393.185 173.228 393.93 173.056 394.609 172.725C395.288 172.394 395.883 171.914 396.35 171.32C397.056 170.434 397.434 169.332 397.42 168.2C397.42 166.874 396.893 165.602 395.956 164.664C395.018 163.727 393.746 163.2 392.42 163.2C391.094 163.2 389.822 163.727 388.885 164.664C387.947 165.602 387.42 166.874 387.42 168.2C387.41 169.333 387.791 170.435 388.5 171.32C388.97 171.912 389.568 172.391 390.248 172.722C390.928 173.053 391.674 173.226 392.43 173.23Z" fill="#0047FF"/>
<path d="M401.27 182.2C401.27 185.37 383.55 185.37 383.55 182.2V178.5C384.25 173.44 399.83 173.23 401.28 178.5L401.27 182.2Z" fill="#0047FF"/>
<path d="M398.54 228.73H382.63C381.266 228.73 380.16 229.836 380.16 231.2V233.33C380.16 234.694 381.266 235.8 382.63 235.8H398.54C399.904 235.8 401.01 234.694 401.01 233.33V231.2C401.01 229.836 399.904 228.73 398.54 228.73Z" fill="white"/>
<path d="M370.66 219.16C370.662 219.449 370.578 219.732 370.419 219.974C370.26 220.215 370.032 220.404 369.766 220.516C369.499 220.628 369.205 220.658 368.921 220.603C368.637 220.548 368.376 220.41 368.171 220.206C367.966 220.002 367.826 219.742 367.769 219.459C367.712 219.175 367.74 218.881 367.85 218.614C367.96 218.346 368.147 218.118 368.388 217.957C368.628 217.796 368.911 217.71 369.2 217.71C369.391 217.709 369.581 217.745 369.758 217.818C369.935 217.89 370.096 217.996 370.232 218.131C370.367 218.266 370.475 218.426 370.549 218.603C370.622 218.779 370.66 218.969 370.66 219.16Z" fill="#0047FF"/>
<path d="M375.64 219.16C375.642 219.45 375.558 219.733 375.398 219.975C375.238 220.217 375.01 220.405 374.743 220.517C374.476 220.629 374.182 220.658 373.898 220.602C373.613 220.546 373.352 220.407 373.148 220.202C372.943 219.998 372.804 219.737 372.748 219.452C372.692 219.168 372.721 218.874 372.833 218.607C372.945 218.339 373.133 218.112 373.375 217.952C373.617 217.792 373.9 217.708 374.19 217.71C374.575 217.71 374.943 217.863 375.215 218.135C375.487 218.407 375.64 218.775 375.64 219.16Z" fill="#0047FF"/>
<path d="M380.62 219.16C380.622 219.45 380.538 219.733 380.378 219.975C380.218 220.217 379.99 220.405 379.723 220.517C379.456 220.629 379.162 220.658 378.878 220.602C378.593 220.546 378.332 220.407 378.128 220.202C377.923 219.998 377.784 219.737 377.728 219.452C377.672 219.168 377.701 218.874 377.813 218.607C377.925 218.339 378.113 218.112 378.355 217.952C378.597 217.792 378.88 217.708 379.17 217.71C379.554 217.71 379.923 217.863 380.195 218.135C380.467 218.407 380.62 218.775 380.62 219.16Z" fill="#0047FF"/>
<path d="M385.6 219.16C385.6 219.447 385.515 219.727 385.356 219.966C385.196 220.204 384.97 220.39 384.705 220.5C384.44 220.609 384.148 220.638 383.867 220.582C383.586 220.526 383.327 220.388 383.125 220.185C382.922 219.982 382.784 219.724 382.728 219.443C382.672 219.162 382.701 218.87 382.81 218.605C382.92 218.34 383.106 218.114 383.344 217.954C383.583 217.795 383.863 217.71 384.15 217.71C384.535 217.71 384.903 217.863 385.175 218.135C385.447 218.407 385.6 218.775 385.6 219.16Z" fill="#0047FF"/>
<path d="M390.58 219.16C390.58 219.447 390.495 219.727 390.336 219.966C390.176 220.204 389.95 220.39 389.685 220.5C389.42 220.609 389.128 220.638 388.847 220.582C388.566 220.526 388.307 220.388 388.105 220.185C387.902 219.982 387.764 219.724 387.708 219.443C387.652 219.162 387.681 218.87 387.79 218.605C387.9 218.34 388.086 218.114 388.324 217.954C388.563 217.795 388.843 217.71 389.13 217.71C389.515 217.71 389.883 217.863 390.155 218.135C390.427 218.407 390.58 218.775 390.58 219.16Z" fill="#0047FF"/>
<path d="M395.57 219.16C395.572 219.449 395.488 219.732 395.329 219.974C395.169 220.215 394.942 220.404 394.676 220.516C394.409 220.628 394.115 220.658 393.831 220.603C393.547 220.548 393.286 220.41 393.081 220.206C392.876 220.002 392.736 219.742 392.679 219.459C392.622 219.175 392.65 218.881 392.76 218.614C392.87 218.346 393.057 218.118 393.298 217.957C393.538 217.796 393.821 217.71 394.11 217.71C394.301 217.709 394.491 217.745 394.668 217.818C394.845 217.89 395.006 217.996 395.142 218.131C395.277 218.266 395.385 218.426 395.459 218.603C395.532 218.779 395.57 218.969 395.57 219.16Z" fill="#0047FF"/>
<path d="M400.55 219.16C400.552 219.45 400.468 219.733 400.308 219.975C400.149 220.217 399.921 220.405 399.653 220.517C399.386 220.629 399.092 220.658 398.808 220.602C398.524 220.546 398.263 220.407 398.058 220.202C397.853 219.998 397.714 219.737 397.658 219.452C397.602 219.168 397.631 218.874 397.743 218.607C397.855 218.339 398.044 218.112 398.285 217.952C398.527 217.792 398.811 217.708 399.1 217.71C399.485 217.71 399.853 217.863 400.125 218.135C400.397 218.407 400.55 218.775 400.55 219.16Z" fill="#0047FF"/>
<path d="M405.53 219.16C405.532 219.45 405.448 219.733 405.288 219.975C405.129 220.217 404.901 220.405 404.633 220.517C404.366 220.629 404.072 220.658 403.788 220.602C403.504 220.546 403.243 220.407 403.038 220.202C402.833 219.998 402.694 219.737 402.638 219.452C402.582 219.168 402.611 218.874 402.723 218.607C402.835 218.339 403.024 218.112 403.265 217.952C403.507 217.792 403.79 217.708 404.08 217.71C404.465 217.71 404.833 217.863 405.105 218.135C405.377 218.407 405.53 218.775 405.53 219.16Z" fill="#0047FF"/>
<path d="M410.51 219.16C410.51 219.447 410.425 219.727 410.266 219.966C410.106 220.204 409.88 220.39 409.615 220.5C409.35 220.609 409.058 220.638 408.777 220.582C408.496 220.526 408.237 220.388 408.035 220.185C407.832 219.982 407.694 219.724 407.638 219.443C407.582 219.162 407.61 218.87 407.72 218.605C407.83 218.34 408.016 218.114 408.254 217.954C408.493 217.795 408.773 217.71 409.06 217.71C409.444 217.71 409.813 217.863 410.085 218.135C410.357 218.407 410.51 218.775 410.51 219.16Z" fill="#0047FF"/>
<path d="M361.14 218V217.78C361.14 217.35 360.969 216.938 360.665 216.635C360.362 216.331 359.95 216.16 359.52 216.16C359.09 216.16 358.678 216.331 358.374 216.635C358.071 216.938 357.9 217.35 357.9 217.78V218H357.65V221C357.65 221.51 361.4 221.51 361.4 221V218H361.14ZM358.47 217.78C358.456 217.633 358.472 217.484 358.519 217.344C358.565 217.204 358.641 217.074 358.74 216.965C358.839 216.855 358.96 216.768 359.096 216.708C359.231 216.648 359.377 216.617 359.525 216.617C359.673 216.617 359.819 216.648 359.954 216.708C360.089 216.768 360.211 216.855 360.31 216.965C360.409 217.074 360.485 217.204 360.531 217.344C360.578 217.484 360.594 217.633 360.58 217.78V218H358.47V217.78ZM359.8 219.48V220.32C359.799 220.356 359.79 220.392 359.775 220.425C359.759 220.458 359.737 220.488 359.71 220.512C359.683 220.536 359.652 220.555 359.617 220.566C359.583 220.578 359.546 220.583 359.51 220.58C359.475 220.581 359.441 220.576 359.409 220.563C359.377 220.551 359.347 220.531 359.323 220.507C359.299 220.483 359.279 220.453 359.267 220.421C359.254 220.389 359.248 220.355 359.25 220.32V219.48C359.171 219.437 359.105 219.373 359.059 219.296C359.014 219.218 358.99 219.13 358.99 219.04C358.992 218.903 359.048 218.772 359.145 218.675C359.242 218.578 359.373 218.523 359.51 218.52C359.633 218.508 359.756 218.54 359.858 218.61C359.96 218.679 360.034 218.782 360.068 218.9C360.103 219.019 360.095 219.145 360.046 219.258C359.997 219.372 359.91 219.464 359.8 219.52V219.48Z" fill="#0047FF"/>
<path d="M359.52 205.2C359.801 205.2 360.071 205.088 360.27 204.889C360.468 204.691 360.58 204.421 360.58 204.14C360.58 203.859 360.468 203.589 360.27 203.39C360.071 203.192 359.801 203.08 359.52 203.08C359.239 203.08 358.969 203.192 358.77 203.39C358.572 203.589 358.46 203.859 358.46 204.14C358.46 204.421 358.572 204.691 358.77 204.889C358.969 205.088 359.239 205.2 359.52 205.2Z" fill="#0047FF"/>
<path d="M361.39 207.09C361.39 207.76 357.63 207.76 357.63 207.09V206.31C357.78 205.24 361.06 205.2 361.37 206.31L361.39 207.09Z" fill="#0047FF"/>
<path d="M383.82 206.71H368.62C368.299 206.71 367.991 206.583 367.764 206.356C367.537 206.129 367.41 205.821 367.41 205.5C367.41 205.179 367.537 204.871 367.764 204.644C367.991 204.418 368.299 204.29 368.62 204.29H383.82C384.136 204.298 384.436 204.429 384.656 204.655C384.877 204.881 385 205.184 385 205.5C385 205.816 384.877 206.119 384.656 206.345C384.436 206.571 384.136 206.702 383.82 206.71Z" fill="#0047FF"/>
<path d="M403.87 206.71H388.67C388.349 206.71 388.041 206.583 387.814 206.356C387.587 206.129 387.46 205.821 387.46 205.5C387.46 205.179 387.587 204.871 387.814 204.644C388.041 204.418 388.349 204.29 388.67 204.29H403.87C404.191 204.29 404.499 204.418 404.726 204.644C404.952 204.871 405.08 205.179 405.08 205.5C405.08 205.821 404.952 206.129 404.726 206.356C404.499 206.583 404.191 206.71 403.87 206.71Z" fill="#0047FF"/>
<path d="M159.18 106.65C162.251 106.65 164.74 104.161 164.74 101.09C164.74 98.0193 162.251 95.53 159.18 95.53C156.109 95.53 153.62 98.0193 153.62 101.09C153.62 104.161 156.109 106.65 159.18 106.65Z" fill="white" stroke="#162753" stroke-miterlimit="10"/>
</svg>
