<svg width="367" height="258" viewBox="0 0 367 258" fill="none" xmlns="http://www.w3.org/2000/svg">
<path d="M264.92 199.81C265.632 199.81 266.21 199.232 266.21 198.52C266.21 197.808 265.632 197.23 264.92 197.23C264.207 197.23 263.63 197.808 263.63 198.52C263.63 199.232 264.207 199.81 264.92 199.81Z" fill="#0047FF"/>
<path d="M276.37 199.81C277.082 199.81 277.66 199.232 277.66 198.52C277.66 197.808 277.082 197.23 276.37 197.23C275.657 197.23 275.08 197.808 275.08 198.52C275.08 199.232 275.657 199.81 276.37 199.81Z" fill="#0047FF"/>
<path d="M287.82 199.81C288.532 199.81 289.11 199.232 289.11 198.52C289.11 197.808 288.532 197.23 287.82 197.23C287.107 197.23 286.53 197.808 286.53 198.52C286.53 199.232 287.107 199.81 287.82 199.81Z" fill="#0047FF"/>
<path d="M299.28 199.81C299.992 199.81 300.57 199.232 300.57 198.52C300.57 197.808 299.992 197.23 299.28 197.23C298.567 197.23 297.99 197.808 297.99 198.52C297.99 199.232 298.567 199.81 299.28 199.81Z" fill="#0047FF"/>
<path d="M310.73 199.81C311.442 199.81 312.02 199.232 312.02 198.52C312.02 197.808 311.442 197.23 310.73 197.23C310.018 197.23 309.44 197.808 309.44 198.52C309.44 199.232 310.018 199.81 310.73 199.81Z" fill="#0047FF"/>
<path d="M322.18 199.81C322.892 199.81 323.47 199.232 323.47 198.52C323.47 197.808 322.892 197.23 322.18 197.23C321.467 197.23 320.89 197.808 320.89 198.52C320.89 199.232 321.467 199.81 322.18 199.81Z" fill="#0047FF"/>
<path d="M333.63 199.81C334.342 199.81 334.92 199.232 334.92 198.52C334.92 197.808 334.342 197.23 333.63 197.23C332.917 197.23 332.34 197.808 332.34 198.52C332.34 199.232 332.917 199.81 333.63 199.81Z" fill="#0047FF"/>
<path d="M345.09 199.81C345.802 199.81 346.38 199.232 346.38 198.52C346.38 197.808 345.802 197.23 345.09 197.23C344.377 197.23 343.8 197.808 343.8 198.52C343.8 199.232 344.377 199.81 345.09 199.81Z" fill="#0047FF"/>
<path d="M356.54 199.81C357.252 199.81 357.83 199.232 357.83 198.52C357.83 197.808 357.252 197.23 356.54 197.23C355.828 197.23 355.25 197.808 355.25 198.52C355.25 199.232 355.828 199.81 356.54 199.81Z" fill="#0047FF"/>
<path d="M276.37 188.36C277.082 188.36 277.66 187.782 277.66 187.07C277.66 186.358 277.082 185.78 276.37 185.78C275.657 185.78 275.08 186.358 275.08 187.07C275.08 187.782 275.657 188.36 276.37 188.36Z" fill="#0047FF"/>
<path d="M287.82 188.36C288.532 188.36 289.11 187.782 289.11 187.07C289.11 186.358 288.532 185.78 287.82 185.78C287.107 185.78 286.53 186.358 286.53 187.07C286.53 187.782 287.107 188.36 287.82 188.36Z" fill="#0047FF"/>
<path d="M299.28 188.36C299.992 188.36 300.57 187.782 300.57 187.07C300.57 186.358 299.992 185.78 299.28 185.78C298.567 185.78 297.99 186.358 297.99 187.07C297.99 187.782 298.567 188.36 299.28 188.36Z" fill="#0047FF"/>
<path d="M310.73 188.36C311.442 188.36 312.02 187.782 312.02 187.07C312.02 186.358 311.442 185.78 310.73 185.78C310.018 185.78 309.44 186.358 309.44 187.07C309.44 187.782 310.018 188.36 310.73 188.36Z" fill="#0047FF"/>
<path d="M322.18 188.36C322.892 188.36 323.47 187.782 323.47 187.07C323.47 186.358 322.892 185.78 322.18 185.78C321.467 185.78 320.89 186.358 320.89 187.07C320.89 187.782 321.467 188.36 322.18 188.36Z" fill="#0047FF"/>
<path d="M333.63 188.36C334.342 188.36 334.92 187.782 334.92 187.07C334.92 186.358 334.342 185.78 333.63 185.78C332.917 185.78 332.34 186.358 332.34 187.07C332.34 187.782 332.917 188.36 333.63 188.36Z" fill="#0047FF"/>
<path d="M345.09 188.36C345.802 188.36 346.38 187.782 346.38 187.07C346.38 186.358 345.802 185.78 345.09 185.78C344.377 185.78 343.8 186.358 343.8 187.07C343.8 187.782 344.377 188.36 345.09 188.36Z" fill="#0047FF"/>
<path d="M276.37 176.91C277.082 176.91 277.66 176.332 277.66 175.62C277.66 174.908 277.082 174.33 276.37 174.33C275.657 174.33 275.08 174.908 275.08 175.62C275.08 176.332 275.657 176.91 276.37 176.91Z" fill="#0047FF"/>
<path d="M287.82 176.91C288.532 176.91 289.11 176.332 289.11 175.62C289.11 174.908 288.532 174.33 287.82 174.33C287.107 174.33 286.53 174.908 286.53 175.62C286.53 176.332 287.107 176.91 287.82 176.91Z" fill="#0047FF"/>
<path d="M299.28 176.91C299.992 176.91 300.57 176.332 300.57 175.62C300.57 174.908 299.992 174.33 299.28 174.33C298.567 174.33 297.99 174.908 297.99 175.62C297.99 176.332 298.567 176.91 299.28 176.91Z" fill="#0047FF"/>
<path d="M310.73 176.91C311.442 176.91 312.02 176.332 312.02 175.62C312.02 174.908 311.442 174.33 310.73 174.33C310.018 174.33 309.44 174.908 309.44 175.62C309.44 176.332 310.018 176.91 310.73 176.91Z" fill="#0047FF"/>
<path d="M322.18 176.91C322.892 176.91 323.47 176.332 323.47 175.62C323.47 174.908 322.892 174.33 322.18 174.33C321.467 174.33 320.89 174.908 320.89 175.62C320.89 176.332 321.467 176.91 322.18 176.91Z" fill="#0047FF"/>
<path d="M333.63 176.91C334.342 176.91 334.92 176.332 334.92 175.62C334.92 174.908 334.342 174.33 333.63 174.33C332.917 174.33 332.34 174.908 332.34 175.62C332.34 176.332 332.917 176.91 333.63 176.91Z" fill="#0047FF"/>
<path d="M345.09 176.91C345.802 176.91 346.38 176.332 346.38 175.62C346.38 174.908 345.802 174.33 345.09 174.33C344.377 174.33 343.8 174.908 343.8 175.62C343.8 176.332 344.377 176.91 345.09 176.91Z" fill="#0047FF"/>
<path d="M299.28 165.46C299.992 165.46 300.57 164.882 300.57 164.17C300.57 163.458 299.992 162.88 299.28 162.88C298.567 162.88 297.99 163.458 297.99 164.17C297.99 164.882 298.567 165.46 299.28 165.46Z" fill="#0047FF"/>
<path d="M310.73 165.46C311.442 165.46 312.02 164.882 312.02 164.17C312.02 163.458 311.442 162.88 310.73 162.88C310.018 162.88 309.44 163.458 309.44 164.17C309.44 164.882 310.018 165.46 310.73 165.46Z" fill="#0047FF"/>
<path d="M322.18 165.46C322.892 165.46 323.47 164.882 323.47 164.17C323.47 163.458 322.892 162.88 322.18 162.88C321.467 162.88 320.89 163.458 320.89 164.17C320.89 164.882 321.467 165.46 322.18 165.46Z" fill="#0047FF"/>
<path d="M264.92 211.27C265.632 211.27 266.21 210.692 266.21 209.98C266.21 209.268 265.632 208.69 264.92 208.69C264.207 208.69 263.63 209.268 263.63 209.98C263.63 210.692 264.207 211.27 264.92 211.27Z" fill="#0047FF"/>
<path d="M276.37 211.27C277.082 211.27 277.66 210.692 277.66 209.98C277.66 209.268 277.082 208.69 276.37 208.69C275.657 208.69 275.08 209.268 275.08 209.98C275.08 210.692 275.657 211.27 276.37 211.27Z" fill="#0047FF"/>
<path d="M287.82 211.27C288.532 211.27 289.11 210.692 289.11 209.98C289.11 209.268 288.532 208.69 287.82 208.69C287.107 208.69 286.53 209.268 286.53 209.98C286.53 210.692 287.107 211.27 287.82 211.27Z" fill="#0047FF"/>
<path d="M299.28 211.27C299.992 211.27 300.57 210.692 300.57 209.98C300.57 209.268 299.992 208.69 299.28 208.69C298.567 208.69 297.99 209.268 297.99 209.98C297.99 210.692 298.567 211.27 299.28 211.27Z" fill="#0047FF"/>
<path d="M310.73 211.27C311.442 211.27 312.02 210.692 312.02 209.98C312.02 209.268 311.442 208.69 310.73 208.69C310.018 208.69 309.44 209.268 309.44 209.98C309.44 210.692 310.018 211.27 310.73 211.27Z" fill="#0047FF"/>
<path d="M322.18 211.27C322.892 211.27 323.47 210.692 323.47 209.98C323.47 209.268 322.892 208.69 322.18 208.69C321.467 208.69 320.89 209.268 320.89 209.98C320.89 210.692 321.467 211.27 322.18 211.27Z" fill="#0047FF"/>
<path d="M333.63 211.27C334.342 211.27 334.92 210.692 334.92 209.98C334.92 209.268 334.342 208.69 333.63 208.69C332.917 208.69 332.34 209.268 332.34 209.98C332.34 210.692 332.917 211.27 333.63 211.27Z" fill="#0047FF"/>
<path d="M345.09 211.27C345.802 211.27 346.38 210.692 346.38 209.98C346.38 209.268 345.802 208.69 345.09 208.69C344.377 208.69 343.8 209.268 343.8 209.98C343.8 210.692 344.377 211.27 345.09 211.27Z" fill="#0047FF"/>
<path d="M356.54 211.27C357.252 211.27 357.83 210.692 357.83 209.98C357.83 209.268 357.252 208.69 356.54 208.69C355.828 208.69 355.25 209.268 355.25 209.98C355.25 210.692 355.828 211.27 356.54 211.27Z" fill="#0047FF"/>
<path d="M264.92 222.72C265.632 222.72 266.21 222.142 266.21 221.43C266.21 220.718 265.632 220.14 264.92 220.14C264.207 220.14 263.63 220.718 263.63 221.43C263.63 222.142 264.207 222.72 264.92 222.72Z" fill="#0047FF"/>
<path d="M276.37 222.72C277.082 222.72 277.66 222.142 277.66 221.43C277.66 220.718 277.082 220.14 276.37 220.14C275.657 220.14 275.08 220.718 275.08 221.43C275.08 222.142 275.657 222.72 276.37 222.72Z" fill="#0047FF"/>
<path d="M287.82 222.72C288.532 222.72 289.11 222.142 289.11 221.43C289.11 220.718 288.532 220.14 287.82 220.14C287.107 220.14 286.53 220.718 286.53 221.43C286.53 222.142 287.107 222.72 287.82 222.72Z" fill="#0047FF"/>
<path d="M299.28 222.72C299.992 222.72 300.57 222.142 300.57 221.43C300.57 220.718 299.992 220.14 299.28 220.14C298.567 220.14 297.99 220.718 297.99 221.43C297.99 222.142 298.567 222.72 299.28 222.72Z" fill="#0047FF"/>
<path d="M310.73 222.72C311.442 222.72 312.02 222.142 312.02 221.43C312.02 220.718 311.442 220.14 310.73 220.14C310.018 220.14 309.44 220.718 309.44 221.43C309.44 222.142 310.018 222.72 310.73 222.72Z" fill="#0047FF"/>
<path d="M322.18 222.72C322.892 222.72 323.47 222.142 323.47 221.43C323.47 220.718 322.892 220.14 322.18 220.14C321.467 220.14 320.89 220.718 320.89 221.43C320.89 222.142 321.467 222.72 322.18 222.72Z" fill="#0047FF"/>
<path d="M333.63 222.72C334.342 222.72 334.92 222.142 334.92 221.43C334.92 220.718 334.342 220.14 333.63 220.14C332.917 220.14 332.34 220.718 332.34 221.43C332.34 222.142 332.917 222.72 333.63 222.72Z" fill="#0047FF"/>
<path d="M345.09 222.72C345.802 222.72 346.38 222.142 346.38 221.43C346.38 220.718 345.802 220.14 345.09 220.14C344.377 220.14 343.8 220.718 343.8 221.43C343.8 222.142 344.377 222.72 345.09 222.72Z" fill="#0047FF"/>
<path d="M356.54 222.72C357.252 222.72 357.83 222.142 357.83 221.43C357.83 220.718 357.252 220.14 356.54 220.14C355.828 220.14 355.25 220.718 355.25 221.43C355.25 222.142 355.828 222.72 356.54 222.72Z" fill="#0047FF"/>
<path d="M276.37 234.17C277.082 234.17 277.66 233.592 277.66 232.88C277.66 232.168 277.082 231.59 276.37 231.59C275.657 231.59 275.08 232.168 275.08 232.88C275.08 233.592 275.657 234.17 276.37 234.17Z" fill="#0047FF"/>
<path d="M287.82 234.17C288.532 234.17 289.11 233.592 289.11 232.88C289.11 232.168 288.532 231.59 287.82 231.59C287.107 231.59 286.53 232.168 286.53 232.88C286.53 233.592 287.107 234.17 287.82 234.17Z" fill="#0047FF"/>
<path d="M299.28 234.17C299.992 234.17 300.57 233.592 300.57 232.88C300.57 232.168 299.992 231.59 299.28 231.59C298.567 231.59 297.99 232.168 297.99 232.88C297.99 233.592 298.567 234.17 299.28 234.17Z" fill="#0047FF"/>
<path d="M310.73 234.17C311.442 234.17 312.02 233.592 312.02 232.88C312.02 232.168 311.442 231.59 310.73 231.59C310.018 231.59 309.44 232.168 309.44 232.88C309.44 233.592 310.018 234.17 310.73 234.17Z" fill="#0047FF"/>
<path d="M322.18 234.17C322.892 234.17 323.47 233.592 323.47 232.88C323.47 232.168 322.892 231.59 322.18 231.59C321.467 231.59 320.89 232.168 320.89 232.88C320.89 233.592 321.467 234.17 322.18 234.17Z" fill="#0047FF"/>
<path d="M333.63 234.17C334.342 234.17 334.92 233.592 334.92 232.88C334.92 232.168 334.342 231.59 333.63 231.59C332.917 231.59 332.34 232.168 332.34 232.88C332.34 233.592 332.917 234.17 333.63 234.17Z" fill="#0047FF"/>
<path d="M345.09 234.17C345.802 234.17 346.38 233.592 346.38 232.88C346.38 232.168 345.802 231.59 345.09 231.59C344.377 231.59 343.8 232.168 343.8 232.88C343.8 233.592 344.377 234.17 345.09 234.17Z" fill="#0047FF"/>
<path d="M276.37 245.62C277.082 245.62 277.66 245.042 277.66 244.33C277.66 243.618 277.082 243.04 276.37 243.04C275.657 243.04 275.08 243.618 275.08 244.33C275.08 245.042 275.657 245.62 276.37 245.62Z" fill="#0047FF"/>
<path d="M287.82 245.62C288.532 245.62 289.11 245.042 289.11 244.33C289.11 243.618 288.532 243.04 287.82 243.04C287.107 243.04 286.53 243.618 286.53 244.33C286.53 245.042 287.107 245.62 287.82 245.62Z" fill="#0047FF"/>
<path d="M299.28 245.62C299.992 245.62 300.57 245.042 300.57 244.33C300.57 243.618 299.992 243.04 299.28 243.04C298.567 243.04 297.99 243.618 297.99 244.33C297.99 245.042 298.567 245.62 299.28 245.62Z" fill="#0047FF"/>
<path d="M310.73 245.62C311.442 245.62 312.02 245.042 312.02 244.33C312.02 243.618 311.442 243.04 310.73 243.04C310.018 243.04 309.44 243.618 309.44 244.33C309.44 245.042 310.018 245.62 310.73 245.62Z" fill="#0047FF"/>
<path d="M322.18 245.62C322.892 245.62 323.47 245.042 323.47 244.33C323.47 243.618 322.892 243.04 322.18 243.04C321.467 243.04 320.89 243.618 320.89 244.33C320.89 245.042 321.467 245.62 322.18 245.62Z" fill="#0047FF"/>
<path d="M333.63 245.62C334.342 245.62 334.92 245.042 334.92 244.33C334.92 243.618 334.342 243.04 333.63 243.04C332.917 243.04 332.34 243.618 332.34 244.33C332.34 245.042 332.917 245.62 333.63 245.62Z" fill="#0047FF"/>
<path d="M345.09 245.62C345.802 245.62 346.38 245.042 346.38 244.33C346.38 243.618 345.802 243.04 345.09 243.04C344.377 243.04 343.8 243.618 343.8 244.33C343.8 245.042 344.377 245.62 345.09 245.62Z" fill="#0047FF"/>
<path d="M299.28 257.08C299.992 257.08 300.57 256.502 300.57 255.79C300.57 255.078 299.992 254.5 299.28 254.5C298.567 254.5 297.99 255.078 297.99 255.79C297.99 256.502 298.567 257.08 299.28 257.08Z" fill="#0047FF"/>
<path d="M310.73 257.08C311.442 257.08 312.02 256.502 312.02 255.79C312.02 255.078 311.442 254.5 310.73 254.5C310.018 254.5 309.44 255.078 309.44 255.79C309.44 256.502 310.018 257.08 310.73 257.08Z" fill="#0047FF"/>
<path d="M322.18 257.08C322.892 257.08 323.47 256.502 323.47 255.79C323.47 255.078 322.892 254.5 322.18 254.5C321.467 254.5 320.89 255.078 320.89 255.79C320.89 256.502 321.467 257.08 322.18 257.08Z" fill="#0047FF"/>
<path d="M120.83 192.92C121.603 192.92 122.23 192.293 122.23 191.52C122.23 190.747 121.603 190.12 120.83 190.12C120.057 190.12 119.43 190.747 119.43 191.52C119.43 192.293 120.057 192.92 120.83 192.92Z" fill="#0047FF"/>
<path d="M120.83 178.94C121.603 178.94 122.23 178.313 122.23 177.54C122.23 176.767 121.603 176.14 120.83 176.14C120.057 176.14 119.43 176.767 119.43 177.54C119.43 178.313 120.057 178.94 120.83 178.94Z" fill="#0047FF"/>
<path d="M120.83 164.97C121.603 164.97 122.23 164.343 122.23 163.57C122.23 162.797 121.603 162.17 120.83 162.17C120.057 162.17 119.43 162.797 119.43 163.57C119.43 164.343 120.057 164.97 120.83 164.97Z" fill="#0047FF"/>
<path d="M120.83 150.99C121.603 150.99 122.23 150.363 122.23 149.59C122.23 148.817 121.603 148.19 120.83 148.19C120.057 148.19 119.43 148.817 119.43 149.59C119.43 150.363 120.057 150.99 120.83 150.99Z" fill="#0047FF"/>
<path d="M120.83 137.01C121.603 137.01 122.23 136.383 122.23 135.61C122.23 134.837 121.603 134.21 120.83 134.21C120.057 134.21 119.43 134.837 119.43 135.61C119.43 136.383 120.057 137.01 120.83 137.01Z" fill="#0047FF"/>
<path d="M120.83 123.04C121.603 123.04 122.23 122.413 122.23 121.64C122.23 120.867 121.603 120.24 120.83 120.24C120.057 120.24 119.43 120.867 119.43 121.64C119.43 122.413 120.057 123.04 120.83 123.04Z" fill="#0047FF"/>
<path d="M120.83 109.06C121.603 109.06 122.23 108.433 122.23 107.66C122.23 106.887 121.603 106.26 120.83 106.26C120.057 106.26 119.43 106.887 119.43 107.66C119.43 108.433 120.057 109.06 120.83 109.06Z" fill="#0047FF"/>
<path d="M120.83 95.08C121.603 95.08 122.23 94.4532 122.23 93.68C122.23 92.9068 121.603 92.28 120.83 92.28C120.057 92.28 119.43 92.9068 119.43 93.68C119.43 94.4532 120.057 95.08 120.83 95.08Z" fill="#0047FF"/>
<path d="M120.83 81.11C121.603 81.11 122.23 80.4832 122.23 79.71C122.23 78.9368 121.603 78.31 120.83 78.31C120.057 78.31 119.43 78.9368 119.43 79.71C119.43 80.4832 120.057 81.11 120.83 81.11Z" fill="#0047FF"/>
<path d="M120.83 67.13C121.603 67.13 122.23 66.5032 122.23 65.73C122.23 64.9568 121.603 64.33 120.83 64.33C120.057 64.33 119.43 64.9568 119.43 65.73C119.43 66.5032 120.057 67.13 120.83 67.13Z" fill="#0047FF"/>
<path d="M120.83 53.16C121.603 53.16 122.23 52.5332 122.23 51.76C122.23 50.9868 121.603 50.36 120.83 50.36C120.057 50.36 119.43 50.9868 119.43 51.76C119.43 52.5332 120.057 53.16 120.83 53.16Z" fill="#0047FF"/>
<path d="M106.85 192.92C107.623 192.92 108.25 192.293 108.25 191.52C108.25 190.747 107.623 190.12 106.85 190.12C106.077 190.12 105.45 190.747 105.45 191.52C105.45 192.293 106.077 192.92 106.85 192.92Z" fill="#0047FF"/>
<path d="M106.85 178.94C107.623 178.94 108.25 178.313 108.25 177.54C108.25 176.767 107.623 176.14 106.85 176.14C106.077 176.14 105.45 176.767 105.45 177.54C105.45 178.313 106.077 178.94 106.85 178.94Z" fill="#0047FF"/>
<path d="M106.85 164.97C107.623 164.97 108.25 164.343 108.25 163.57C108.25 162.797 107.623 162.17 106.85 162.17C106.077 162.17 105.45 162.797 105.45 163.57C105.45 164.343 106.077 164.97 106.85 164.97Z" fill="#0047FF"/>
<path d="M106.85 150.99C107.623 150.99 108.25 150.363 108.25 149.59C108.25 148.817 107.623 148.19 106.85 148.19C106.077 148.19 105.45 148.817 105.45 149.59C105.45 150.363 106.077 150.99 106.85 150.99Z" fill="#0047FF"/>
<path d="M106.85 137.01C107.623 137.01 108.25 136.383 108.25 135.61C108.25 134.837 107.623 134.21 106.85 134.21C106.077 134.21 105.45 134.837 105.45 135.61C105.45 136.383 106.077 137.01 106.85 137.01Z" fill="#0047FF"/>
<path d="M106.85 123.04C107.623 123.04 108.25 122.413 108.25 121.64C108.25 120.867 107.623 120.24 106.85 120.24C106.077 120.24 105.45 120.867 105.45 121.64C105.45 122.413 106.077 123.04 106.85 123.04Z" fill="#0047FF"/>
<path d="M106.85 109.06C107.623 109.06 108.25 108.433 108.25 107.66C108.25 106.887 107.623 106.26 106.85 106.26C106.077 106.26 105.45 106.887 105.45 107.66C105.45 108.433 106.077 109.06 106.85 109.06Z" fill="#0047FF"/>
<path d="M106.85 95.08C107.623 95.08 108.25 94.4532 108.25 93.68C108.25 92.9068 107.623 92.28 106.85 92.28C106.077 92.28 105.45 92.9068 105.45 93.68C105.45 94.4532 106.077 95.08 106.85 95.08Z" fill="#0047FF"/>
<path d="M106.85 81.11C107.623 81.11 108.25 80.4832 108.25 79.71C108.25 78.9368 107.623 78.31 106.85 78.31C106.077 78.31 105.45 78.9368 105.45 79.71C105.45 80.4832 106.077 81.11 106.85 81.11Z" fill="#0047FF"/>
<path d="M106.85 67.13C107.623 67.13 108.25 66.5032 108.25 65.73C108.25 64.9568 107.623 64.33 106.85 64.33C106.077 64.33 105.45 64.9568 105.45 65.73C105.45 66.5032 106.077 67.13 106.85 67.13Z" fill="#0047FF"/>
<path d="M106.85 53.16C107.623 53.16 108.25 52.5332 108.25 51.76C108.25 50.9868 107.623 50.36 106.85 50.36C106.077 50.36 105.45 50.9868 105.45 51.76C105.45 52.5332 106.077 53.16 106.85 53.16Z" fill="#0047FF"/>
<path d="M92.88 192.92C93.6532 192.92 94.28 192.293 94.28 191.52C94.28 190.747 93.6532 190.12 92.88 190.12C92.1068 190.12 91.48 190.747 91.48 191.52C91.48 192.293 92.1068 192.92 92.88 192.92Z" fill="#0047FF"/>
<path d="M92.88 178.94C93.6532 178.94 94.28 178.313 94.28 177.54C94.28 176.767 93.6532 176.14 92.88 176.14C92.1068 176.14 91.48 176.767 91.48 177.54C91.48 178.313 92.1068 178.94 92.88 178.94Z" fill="#0047FF"/>
<path d="M92.88 164.97C93.6532 164.97 94.28 164.343 94.28 163.57C94.28 162.797 93.6532 162.17 92.88 162.17C92.1068 162.17 91.48 162.797 91.48 163.57C91.48 164.343 92.1068 164.97 92.88 164.97Z" fill="#0047FF"/>
<path d="M92.88 150.99C93.6532 150.99 94.28 150.363 94.28 149.59C94.28 148.817 93.6532 148.19 92.88 148.19C92.1068 148.19 91.48 148.817 91.48 149.59C91.48 150.363 92.1068 150.99 92.88 150.99Z" fill="#0047FF"/>
<path d="M92.88 137.01C93.6532 137.01 94.28 136.383 94.28 135.61C94.28 134.837 93.6532 134.21 92.88 134.21C92.1068 134.21 91.48 134.837 91.48 135.61C91.48 136.383 92.1068 137.01 92.88 137.01Z" fill="#0047FF"/>
<path d="M92.88 123.04C93.6532 123.04 94.28 122.413 94.28 121.64C94.28 120.867 93.6532 120.24 92.88 120.24C92.1068 120.24 91.48 120.867 91.48 121.64C91.48 122.413 92.1068 123.04 92.88 123.04Z" fill="#0047FF"/>
<path d="M92.88 109.06C93.6532 109.06 94.28 108.433 94.28 107.66C94.28 106.887 93.6532 106.26 92.88 106.26C92.1068 106.26 91.48 106.887 91.48 107.66C91.48 108.433 92.1068 109.06 92.88 109.06Z" fill="#0047FF"/>
<path d="M92.88 95.08C93.6532 95.08 94.28 94.4532 94.28 93.68C94.28 92.9068 93.6532 92.28 92.88 92.28C92.1068 92.28 91.48 92.9068 91.48 93.68C91.48 94.4532 92.1068 95.08 92.88 95.08Z" fill="#0047FF"/>
<path d="M92.88 81.11C93.6532 81.11 94.28 80.4832 94.28 79.71C94.28 78.9368 93.6532 78.31 92.88 78.31C92.1068 78.31 91.48 78.9368 91.48 79.71C91.48 80.4832 92.1068 81.11 92.88 81.11Z" fill="#0047FF"/>
<path d="M92.88 67.13C93.6532 67.13 94.28 66.5032 94.28 65.73C94.28 64.9568 93.6532 64.33 92.88 64.33C92.1068 64.33 91.48 64.9568 91.48 65.73C91.48 66.5032 92.1068 67.13 92.88 67.13Z" fill="#0047FF"/>
<path d="M92.88 53.16C93.6532 53.16 94.28 52.5332 94.28 51.76C94.28 50.9868 93.6532 50.36 92.88 50.36C92.1068 50.36 91.48 50.9868 91.48 51.76C91.48 52.5332 92.1068 53.16 92.88 53.16Z" fill="#0047FF"/>
<path d="M78.9 192.92C79.6732 192.92 80.3 192.293 80.3 191.52C80.3 190.747 79.6732 190.12 78.9 190.12C78.1268 190.12 77.5 190.747 77.5 191.52C77.5 192.293 78.1268 192.92 78.9 192.92Z" fill="#0047FF"/>
<path d="M78.9 178.94C79.6732 178.94 80.3 178.313 80.3 177.54C80.3 176.767 79.6732 176.14 78.9 176.14C78.1268 176.14 77.5 176.767 77.5 177.54C77.5 178.313 78.1268 178.94 78.9 178.94Z" fill="#0047FF"/>
<path d="M78.9 164.97C79.6732 164.97 80.3 164.343 80.3 163.57C80.3 162.797 79.6732 162.17 78.9 162.17C78.1268 162.17 77.5 162.797 77.5 163.57C77.5 164.343 78.1268 164.97 78.9 164.97Z" fill="#0047FF"/>
<path d="M78.9 150.99C79.6732 150.99 80.3 150.363 80.3 149.59C80.3 148.817 79.6732 148.19 78.9 148.19C78.1268 148.19 77.5 148.817 77.5 149.59C77.5 150.363 78.1268 150.99 78.9 150.99Z" fill="#0047FF"/>
<path d="M78.9 137.01C79.6732 137.01 80.3 136.383 80.3 135.61C80.3 134.837 79.6732 134.21 78.9 134.21C78.1268 134.21 77.5 134.837 77.5 135.61C77.5 136.383 78.1268 137.01 78.9 137.01Z" fill="#0047FF"/>
<path d="M78.9 123.04C79.6732 123.04 80.3 122.413 80.3 121.64C80.3 120.867 79.6732 120.24 78.9 120.24C78.1268 120.24 77.5 120.867 77.5 121.64C77.5 122.413 78.1268 123.04 78.9 123.04Z" fill="#0047FF"/>
<path d="M78.9 109.06C79.6732 109.06 80.3 108.433 80.3 107.66C80.3 106.887 79.6732 106.26 78.9 106.26C78.1268 106.26 77.5 106.887 77.5 107.66C77.5 108.433 78.1268 109.06 78.9 109.06Z" fill="#0047FF"/>
<path d="M78.9 95.08C79.6732 95.08 80.3 94.4532 80.3 93.68C80.3 92.9068 79.6732 92.28 78.9 92.28C78.1268 92.28 77.5 92.9068 77.5 93.68C77.5 94.4532 78.1268 95.08 78.9 95.08Z" fill="#0047FF"/>
<path d="M78.9 81.11C79.6732 81.11 80.3 80.4832 80.3 79.71C80.3 78.9368 79.6732 78.31 78.9 78.31C78.1268 78.31 77.5 78.9368 77.5 79.71C77.5 80.4832 78.1268 81.11 78.9 81.11Z" fill="#0047FF"/>
<path d="M78.9 67.13C79.6732 67.13 80.3 66.5032 80.3 65.73C80.3 64.9568 79.6732 64.33 78.9 64.33C78.1268 64.33 77.5 64.9568 77.5 65.73C77.5 66.5032 78.1268 67.13 78.9 67.13Z" fill="#0047FF"/>
<path d="M78.9 53.16C79.6732 53.16 80.3 52.5332 80.3 51.76C80.3 50.9868 79.6732 50.36 78.9 50.36C78.1268 50.36 77.5 50.9868 77.5 51.76C77.5 52.5332 78.1268 53.16 78.9 53.16Z" fill="#0047FF"/>
<path d="M64.93 192.92C65.7032 192.92 66.33 192.293 66.33 191.52C66.33 190.747 65.7032 190.12 64.93 190.12C64.1568 190.12 63.53 190.747 63.53 191.52C63.53 192.293 64.1568 192.92 64.93 192.92Z" fill="#0047FF"/>
<path d="M64.93 178.94C65.7032 178.94 66.33 178.313 66.33 177.54C66.33 176.767 65.7032 176.14 64.93 176.14C64.1568 176.14 63.53 176.767 63.53 177.54C63.53 178.313 64.1568 178.94 64.93 178.94Z" fill="#0047FF"/>
<path d="M64.93 164.97C65.7032 164.97 66.33 164.343 66.33 163.57C66.33 162.797 65.7032 162.17 64.93 162.17C64.1568 162.17 63.53 162.797 63.53 163.57C63.53 164.343 64.1568 164.97 64.93 164.97Z" fill="#0047FF"/>
<path d="M64.93 150.99C65.7032 150.99 66.33 150.363 66.33 149.59C66.33 148.817 65.7032 148.19 64.93 148.19C64.1568 148.19 63.53 148.817 63.53 149.59C63.53 150.363 64.1568 150.99 64.93 150.99Z" fill="#0047FF"/>
<path d="M64.93 137.01C65.7032 137.01 66.33 136.383 66.33 135.61C66.33 134.837 65.7032 134.21 64.93 134.21C64.1568 134.21 63.53 134.837 63.53 135.61C63.53 136.383 64.1568 137.01 64.93 137.01Z" fill="#0047FF"/>
<path d="M64.93 123.04C65.7032 123.04 66.33 122.413 66.33 121.64C66.33 120.867 65.7032 120.24 64.93 120.24C64.1568 120.24 63.53 120.867 63.53 121.64C63.53 122.413 64.1568 123.04 64.93 123.04Z" fill="#0047FF"/>
<path d="M64.93 109.06C65.7032 109.06 66.33 108.433 66.33 107.66C66.33 106.887 65.7032 106.26 64.93 106.26C64.1568 106.26 63.53 106.887 63.53 107.66C63.53 108.433 64.1568 109.06 64.93 109.06Z" fill="#0047FF"/>
<path d="M64.93 95.08C65.7032 95.08 66.33 94.4532 66.33 93.68C66.33 92.9068 65.7032 92.28 64.93 92.28C64.1568 92.28 63.53 92.9068 63.53 93.68C63.53 94.4532 64.1568 95.08 64.93 95.08Z" fill="#0047FF"/>
<path d="M64.93 81.11C65.7032 81.11 66.33 80.4832 66.33 79.71C66.33 78.9368 65.7032 78.31 64.93 78.31C64.1568 78.31 63.53 78.9368 63.53 79.71C63.53 80.4832 64.1568 81.11 64.93 81.11Z" fill="#0047FF"/>
<path d="M64.93 67.13C65.7032 67.13 66.33 66.5032 66.33 65.73C66.33 64.9568 65.7032 64.33 64.93 64.33C64.1568 64.33 63.53 64.9568 63.53 65.73C63.53 66.5032 64.1568 67.13 64.93 67.13Z" fill="#0047FF"/>
<path d="M64.93 53.16C65.7032 53.16 66.33 52.5332 66.33 51.76C66.33 50.9868 65.7032 50.36 64.93 50.36C64.1568 50.36 63.53 50.9868 63.53 51.76C63.53 52.5332 64.1568 53.16 64.93 53.16Z" fill="#0047FF"/>
<path d="M50.95 192.92C51.7232 192.92 52.3501 192.293 52.3501 191.52C52.3501 190.747 51.7232 190.12 50.95 190.12C50.1768 190.12 49.55 190.747 49.55 191.52C49.55 192.293 50.1768 192.92 50.95 192.92Z" fill="#0047FF"/>
<path d="M50.95 178.94C51.7232 178.94 52.3501 178.313 52.3501 177.54C52.3501 176.767 51.7232 176.14 50.95 176.14C50.1768 176.14 49.55 176.767 49.55 177.54C49.55 178.313 50.1768 178.94 50.95 178.94Z" fill="#0047FF"/>
<path d="M50.95 164.97C51.7232 164.97 52.3501 164.343 52.3501 163.57C52.3501 162.797 51.7232 162.17 50.95 162.17C50.1768 162.17 49.55 162.797 49.55 163.57C49.55 164.343 50.1768 164.97 50.95 164.97Z" fill="#0047FF"/>
<path d="M50.95 150.99C51.7232 150.99 52.3501 150.363 52.3501 149.59C52.3501 148.817 51.7232 148.19 50.95 148.19C50.1768 148.19 49.55 148.817 49.55 149.59C49.55 150.363 50.1768 150.99 50.95 150.99Z" fill="#0047FF"/>
<path d="M50.95 137.01C51.7232 137.01 52.3501 136.383 52.3501 135.61C52.3501 134.837 51.7232 134.21 50.95 134.21C50.1768 134.21 49.55 134.837 49.55 135.61C49.55 136.383 50.1768 137.01 50.95 137.01Z" fill="#0047FF"/>
<path d="M50.95 123.04C51.7232 123.04 52.3501 122.413 52.3501 121.64C52.3501 120.867 51.7232 120.24 50.95 120.24C50.1768 120.24 49.55 120.867 49.55 121.64C49.55 122.413 50.1768 123.04 50.95 123.04Z" fill="#0047FF"/>
<path d="M50.95 109.06C51.7232 109.06 52.3501 108.433 52.3501 107.66C52.3501 106.887 51.7232 106.26 50.95 106.26C50.1768 106.26 49.55 106.887 49.55 107.66C49.55 108.433 50.1768 109.06 50.95 109.06Z" fill="#0047FF"/>
<path d="M50.95 95.08C51.7232 95.08 52.3501 94.4532 52.3501 93.68C52.3501 92.9068 51.7232 92.28 50.95 92.28C50.1768 92.28 49.55 92.9068 49.55 93.68C49.55 94.4532 50.1768 95.08 50.95 95.08Z" fill="#0047FF"/>
<path d="M50.95 81.11C51.7232 81.11 52.3501 80.4832 52.3501 79.71C52.3501 78.9368 51.7232 78.31 50.95 78.31C50.1768 78.31 49.55 78.9368 49.55 79.71C49.55 80.4832 50.1768 81.11 50.95 81.11Z" fill="#0047FF"/>
<path d="M50.95 67.13C51.7232 67.13 52.3501 66.5032 52.3501 65.73C52.3501 64.9568 51.7232 64.33 50.95 64.33C50.1768 64.33 49.55 64.9568 49.55 65.73C49.55 66.5032 50.1768 67.13 50.95 67.13Z" fill="#0047FF"/>
<path d="M50.95 53.16C51.7232 53.16 52.3501 52.5332 52.3501 51.76C52.3501 50.9868 51.7232 50.36 50.95 50.36C50.1768 50.36 49.55 50.9868 49.55 51.76C49.55 52.5332 50.1768 53.16 50.95 53.16Z" fill="#0047FF"/>
<path d="M36.9701 192.92C37.7433 192.92 38.3701 192.293 38.3701 191.52C38.3701 190.747 37.7433 190.12 36.9701 190.12C36.1969 190.12 35.5701 190.747 35.5701 191.52C35.5701 192.293 36.1969 192.92 36.9701 192.92Z" fill="#0047FF"/>
<path d="M36.9701 178.94C37.7433 178.94 38.3701 178.313 38.3701 177.54C38.3701 176.767 37.7433 176.14 36.9701 176.14C36.1969 176.14 35.5701 176.767 35.5701 177.54C35.5701 178.313 36.1969 178.94 36.9701 178.94Z" fill="#0047FF"/>
<path d="M36.9701 164.97C37.7433 164.97 38.3701 164.343 38.3701 163.57C38.3701 162.797 37.7433 162.17 36.9701 162.17C36.1969 162.17 35.5701 162.797 35.5701 163.57C35.5701 164.343 36.1969 164.97 36.9701 164.97Z" fill="#0047FF"/>
<path d="M36.9701 150.99C37.7433 150.99 38.3701 150.363 38.3701 149.59C38.3701 148.817 37.7433 148.19 36.9701 148.19C36.1969 148.19 35.5701 148.817 35.5701 149.59C35.5701 150.363 36.1969 150.99 36.9701 150.99Z" fill="#0047FF"/>
<path d="M36.9701 137.01C37.7433 137.01 38.3701 136.383 38.3701 135.61C38.3701 134.837 37.7433 134.21 36.9701 134.21C36.1969 134.21 35.5701 134.837 35.5701 135.61C35.5701 136.383 36.1969 137.01 36.9701 137.01Z" fill="#0047FF"/>
<path d="M36.9701 123.04C37.7433 123.04 38.3701 122.413 38.3701 121.64C38.3701 120.867 37.7433 120.24 36.9701 120.24C36.1969 120.24 35.5701 120.867 35.5701 121.64C35.5701 122.413 36.1969 123.04 36.9701 123.04Z" fill="#0047FF"/>
<path d="M36.9701 109.06C37.7433 109.06 38.3701 108.433 38.3701 107.66C38.3701 106.887 37.7433 106.26 36.9701 106.26C36.1969 106.26 35.5701 106.887 35.5701 107.66C35.5701 108.433 36.1969 109.06 36.9701 109.06Z" fill="#0047FF"/>
<path d="M36.9701 95.08C37.7433 95.08 38.3701 94.4532 38.3701 93.68C38.3701 92.9068 37.7433 92.28 36.9701 92.28C36.1969 92.28 35.5701 92.9068 35.5701 93.68C35.5701 94.4532 36.1969 95.08 36.9701 95.08Z" fill="#0047FF"/>
<path d="M36.9701 81.11C37.7433 81.11 38.3701 80.4832 38.3701 79.71C38.3701 78.9368 37.7433 78.31 36.9701 78.31C36.1969 78.31 35.5701 78.9368 35.5701 79.71C35.5701 80.4832 36.1969 81.11 36.9701 81.11Z" fill="#0047FF"/>
<path d="M36.9701 67.13C37.7433 67.13 38.3701 66.5032 38.3701 65.73C38.3701 64.9568 37.7433 64.33 36.9701 64.33C36.1969 64.33 35.5701 64.9568 35.5701 65.73C35.5701 66.5032 36.1969 67.13 36.9701 67.13Z" fill="#0047FF"/>
<path d="M36.9701 53.16C37.7433 53.16 38.3701 52.5332 38.3701 51.76C38.3701 50.9868 37.7433 50.36 36.9701 50.36C36.1969 50.36 35.5701 50.9868 35.5701 51.76C35.5701 52.5332 36.1969 53.16 36.9701 53.16Z" fill="#0047FF"/>
<path d="M23.0001 192.92C23.7733 192.92 24.4001 192.293 24.4001 191.52C24.4001 190.747 23.7733 190.12 23.0001 190.12C22.2269 190.12 21.6001 190.747 21.6001 191.52C21.6001 192.293 22.2269 192.92 23.0001 192.92Z" fill="#0047FF"/>
<path d="M23.0001 178.94C23.7733 178.94 24.4001 178.313 24.4001 177.54C24.4001 176.767 23.7733 176.14 23.0001 176.14C22.2269 176.14 21.6001 176.767 21.6001 177.54C21.6001 178.313 22.2269 178.94 23.0001 178.94Z" fill="#0047FF"/>
<path d="M23.0001 164.97C23.7733 164.97 24.4001 164.343 24.4001 163.57C24.4001 162.797 23.7733 162.17 23.0001 162.17C22.2269 162.17 21.6001 162.797 21.6001 163.57C21.6001 164.343 22.2269 164.97 23.0001 164.97Z" fill="#0047FF"/>
<path d="M23.0001 150.99C23.7733 150.99 24.4001 150.363 24.4001 149.59C24.4001 148.817 23.7733 148.19 23.0001 148.19C22.2269 148.19 21.6001 148.817 21.6001 149.59C21.6001 150.363 22.2269 150.99 23.0001 150.99Z" fill="#0047FF"/>
<path d="M23.0001 137.01C23.7733 137.01 24.4001 136.383 24.4001 135.61C24.4001 134.837 23.7733 134.21 23.0001 134.21C22.2269 134.21 21.6001 134.837 21.6001 135.61C21.6001 136.383 22.2269 137.01 23.0001 137.01Z" fill="#0047FF"/>
<path d="M23.0001 123.04C23.7733 123.04 24.4001 122.413 24.4001 121.64C24.4001 120.867 23.7733 120.24 23.0001 120.24C22.2269 120.24 21.6001 120.867 21.6001 121.64C21.6001 122.413 22.2269 123.04 23.0001 123.04Z" fill="#0047FF"/>
<path d="M23.0001 109.06C23.7733 109.06 24.4001 108.433 24.4001 107.66C24.4001 106.887 23.7733 106.26 23.0001 106.26C22.2269 106.26 21.6001 106.887 21.6001 107.66C21.6001 108.433 22.2269 109.06 23.0001 109.06Z" fill="#0047FF"/>
<path d="M23.0001 95.08C23.7733 95.08 24.4001 94.4532 24.4001 93.68C24.4001 92.9068 23.7733 92.28 23.0001 92.28C22.2269 92.28 21.6001 92.9068 21.6001 93.68C21.6001 94.4532 22.2269 95.08 23.0001 95.08Z" fill="#0047FF"/>
<path d="M23.0001 81.11C23.7733 81.11 24.4001 80.4832 24.4001 79.71C24.4001 78.9368 23.7733 78.31 23.0001 78.31C22.2269 78.31 21.6001 78.9368 21.6001 79.71C21.6001 80.4832 22.2269 81.11 23.0001 81.11Z" fill="#0047FF"/>
<path d="M23.0001 67.13C23.7733 67.13 24.4001 66.5032 24.4001 65.73C24.4001 64.9568 23.7733 64.33 23.0001 64.33C22.2269 64.33 21.6001 64.9568 21.6001 65.73C21.6001 66.5032 22.2269 67.13 23.0001 67.13Z" fill="#0047FF"/>
<path d="M23.0001 53.16C23.7733 53.16 24.4001 52.5332 24.4001 51.76C24.4001 50.9868 23.7733 50.36 23.0001 50.36C22.2269 50.36 21.6001 50.9868 21.6001 51.76C21.6001 52.5332 22.2269 53.16 23.0001 53.16Z" fill="#0047FF"/>
<path d="M314.97 215.21H61.99L80.15 19.83H333.13L314.97 215.21Z" fill="white" stroke="#0047FF" stroke-miterlimit="10"/>
<path d="M333.12 19.83L366.21 215.21H314.96L333.12 19.83Z" fill="#162753"/>
<path d="M299.32 201.95H80.1599L95.7999 41.49H314.96L299.32 201.95Z" stroke="#99B5FF" stroke-miterlimit="10"/>
<path d="M112.36 35.51H95.3398L96.3799 28.49H113.46L112.36 35.51Z" fill="#0047FF"/>
<path d="M145.19 35.51H128.17L129.2 28.49H146.29L145.19 35.51Z" fill="#0047FF"/>
<path d="M178.02 35.51H161L162.03 28.49H179.12L178.02 35.51Z" fill="#0047FF"/>
<path d="M210.84 35.51H193.83L194.86 28.49H211.95L210.84 35.51Z" fill="#0047FF"/>
<path d="M243.68 35.51H226.66L227.69 28.49H244.77L243.68 35.51Z" fill="#0047FF"/>
<path d="M276.5 35.51H259.49L260.52 28.49H277.61L276.5 35.51Z" fill="#0047FF"/>
<path d="M309.33 35.51H292.32L293.35 28.49H310.44L309.33 35.51Z" fill="#0047FF"/>
<path d="M113.3 17.96L113.2 19.83H118.01L118.09 18.27C118.43 13.85 117.7 9.59002 116.03 6.25002C114.16 2.51002 111.34 0.320024 108.07 0.0700244C104.79 -0.179976 101.67 1.56002 99.2599 4.96002C97.1099 8.00002 95.7299 12.11 95.3899 16.52C95.0499 20.94 95.7799 25.2 97.4499 28.54C99.3199 32.27 102.14 34.47 105.41 34.72C105.47 34.73 105.54 34.73 105.6 34.73C106.84 34.73 107.9 33.77 107.99 32.51C108.09 31.19 107.1 30.03 105.78 29.93C104.28 29.82 102.82 28.53 101.75 26.39C100.49 23.86 99.9099 20.4 100.19 16.89C100.46 13.38 101.55 10.04 103.19 7.74002C104.57 5.79002 106.22 4.74002 107.71 4.86002C109.21 4.97002 110.67 6.26001 111.74 8.40001C113 10.92 113.57 14.39 113.3 17.96Z" fill="#0047FF"/>
<path d="M145.59 17.96L145.49 19.83H150.3L150.38 18.27C150.72 13.85 149.99 9.59002 148.32 6.25002C146.45 2.51002 143.63 0.320024 140.36 0.0700244C137.08 -0.179976 133.96 1.56002 131.55 4.96002C129.4 8.00002 128.02 12.11 127.68 16.52C127.34 20.94 128.07 25.2 129.73 28.54C131.6 32.27 134.42 34.47 137.69 34.72C137.75 34.73 137.81 34.73 137.88 34.73C139.12 34.73 140.18 33.77 140.27 32.51C140.37 31.19 139.38 30.03 138.06 29.93C136.57 29.82 135.1 28.53 134.03 26.39C132.77 23.86 132.2 20.4 132.47 16.89C132.74 13.38 133.83 10.04 135.47 7.74002C136.85 5.79002 138.5 4.74002 139.99 4.86002C141.48 4.97002 142.95 6.26001 144.02 8.40001C145.29 10.92 145.86 14.39 145.59 17.96Z" fill="#0047FF"/>
<path d="M177.89 17.96L177.79 19.83H182.6L182.68 18.27C183.02 13.85 182.29 9.59002 180.63 6.25002C178.76 2.51002 175.93 0.320024 172.67 0.0700244C169.39 -0.179976 166.27 1.56002 163.86 4.96002C161.71 8.00002 160.33 12.11 159.99 16.52C159.65 20.94 160.38 25.2 162.05 28.54C163.92 32.27 166.74 34.47 170.01 34.72C170.07 34.73 170.13 34.73 170.2 34.73C171.44 34.73 172.49 33.77 172.59 32.51C172.69 31.19 171.7 30.03 170.38 29.93C168.89 29.82 167.42 28.53 166.35 26.39C165.09 23.86 164.52 20.4 164.78 16.89C165.05 13.38 166.15 10.04 167.78 7.74002C169.16 5.79002 170.81 4.74002 172.3 4.86002C173.8 4.97002 175.26 6.26001 176.33 8.40001C177.59 10.92 178.16 14.39 177.89 17.96Z" fill="#0047FF"/>
<path d="M210.18 17.96L210.08 19.83H214.89L214.97 18.27C215.31 13.85 214.58 9.59002 212.91 6.25002C211.05 2.51002 208.22 0.320024 204.95 0.0700244C201.67 -0.179976 198.55 1.56002 196.14 4.96002C193.99 8.00002 192.61 12.11 192.27 16.52C191.93 20.94 192.66 25.2 194.32 28.54C196.19 32.27 199.01 34.47 202.28 34.72C202.34 34.73 202.41 34.73 202.47 34.73C203.71 34.73 204.76 33.77 204.86 32.51C204.96 31.19 203.97 30.03 202.65 29.93C201.16 29.82 199.69 28.53 198.62 26.39C197.36 23.86 196.79 20.4 197.06 16.89C197.33 13.38 198.42 10.04 200.06 7.74002C201.44 5.79002 203.09 4.74002 204.58 4.86002C206.07 4.97002 207.54 6.26001 208.61 8.40001C209.89 10.92 210.45 14.39 210.18 17.96Z" fill="#0047FF"/>
<path d="M242.48 17.96L242.38 19.83H247.19L247.27 18.27C247.61 13.85 246.88 9.59002 245.22 6.25002C243.35 2.51002 240.53 0.320024 237.26 0.0700244C233.98 -0.179976 230.86 1.56002 228.45 4.96002C226.3 8.00002 224.92 12.11 224.58 16.52C224.24 20.94 224.97 25.2 226.63 28.54C228.5 32.27 231.32 34.47 234.59 34.72C234.65 34.73 234.71 34.73 234.78 34.73C236.02 34.73 237.07 33.77 237.17 32.51C237.27 31.19 236.28 30.03 234.96 29.93C233.47 29.82 232 28.53 230.93 26.39C229.66 23.86 229.1 20.4 229.37 16.89C229.64 13.38 230.73 10.04 232.37 7.74002C233.75 5.79002 235.4 4.74002 236.89 4.86002C238.38 4.97002 239.85 6.26001 240.92 8.40001C242.18 10.92 242.75 14.39 242.48 17.96Z" fill="#0047FF"/>
<path d="M274.77 17.96L274.67 19.83H279.48L279.56 18.27C279.9 13.85 279.17 9.59002 277.5 6.25002C275.63 2.51002 272.81 0.320024 269.54 0.0700244C266.26 -0.179976 263.14 1.56002 260.73 4.96002C258.58 8.00002 257.2 12.11 256.86 16.52C256.52 20.94 257.25 25.2 258.92 28.54C260.79 32.27 263.61 34.47 266.88 34.72C266.94 34.73 267 34.73 267.07 34.73C268.31 34.73 269.37 33.77 269.46 32.51C269.56 31.19 268.57 30.03 267.25 29.93C265.76 29.82 264.29 28.53 263.22 26.39C261.96 23.86 261.38 20.4 261.66 16.89C261.93 13.38 263.02 10.04 264.66 7.74002C266.04 5.79002 267.69 4.74002 269.18 4.86002C270.67 4.97002 272.14 6.26001 273.21 8.40001C274.48 10.92 275.05 14.39 274.77 17.96Z" fill="#0047FF"/>
<path d="M307.07 17.96L306.97 19.83H311.78L311.86 18.27C312.2 13.85 311.47 9.59002 309.81 6.25002C307.94 2.51002 305.12 0.320024 301.85 0.0700244C298.57 -0.179976 295.45 1.56002 293.04 4.96002C290.88 8.00002 289.51 12.11 289.17 16.52C288.83 20.94 289.56 25.2 291.23 28.54C293.1 32.27 295.92 34.47 299.19 34.72C299.25 34.73 299.32 34.73 299.38 34.73C300.62 34.73 301.67 33.77 301.77 32.51C301.87 31.19 300.88 30.03 299.56 29.93C298.07 29.82 296.6 28.53 295.53 26.39C294.27 23.86 293.7 20.4 293.97 16.89C294.24 13.38 295.33 10.04 296.97 7.74002C298.35 5.79002 300 4.74002 301.49 4.86002C302.98 4.97002 304.45 6.26001 305.52 8.40001C306.77 10.92 307.34 14.39 307.07 17.96Z" fill="#0047FF"/>
<path d="M94.28 57.19H314.02" stroke="#99B5FF" stroke-miterlimit="10"/>
<path d="M91.48 87.02H311.19" stroke="#99B5FF" stroke-miterlimit="10"/>
<path d="M88.6802 116.59H308.36" stroke="#99B5FF" stroke-miterlimit="10"/>
<path d="M85.8901 147.07H305.52" stroke="#99B5FF" stroke-miterlimit="10"/>
<path d="M83.0901 177.54H302.69" stroke="#99B5FF" stroke-miterlimit="10"/>
<path d="M109 201.95L125.15 38.51" stroke="#99B5FF" stroke-miterlimit="10"/>
<path d="M141.3 201.95L157.45 38.51" stroke="#99B5FF" stroke-miterlimit="10"/>
<path d="M173.59 201.95L189.74 38.51" stroke="#99B5FF" stroke-miterlimit="10"/>
<path d="M205.89 201.95L222.04 38.51" stroke="#99B5FF" stroke-miterlimit="10"/>
<path d="M238.19 201.95L254.33 38.51" stroke="#99B5FF" stroke-miterlimit="10"/>
<path d="M270.48 201.95L286.63 38.51" stroke="#99B5FF" stroke-miterlimit="10"/>
<path d="M238.19 201.95L254.33 41.49H314.96L299.32 201.95H238.19Z" stroke="#99B5FF" stroke-miterlimit="10"/>
<path d="M99.1399 46.11L98.6499 50.06H119.06L119.44 46.11H99.1399Z" fill="white" stroke="#0047FF" stroke-miterlimit="10"/>
<path d="M130.17 46.11L129.67 50.06H150.09L150.47 46.11H130.17Z" fill="white" stroke="#0047FF" stroke-miterlimit="10"/>
<path d="M162.47 46.11L161.97 50.06H182.39L182.76 46.11H162.47Z" fill="white" stroke="#0047FF" stroke-miterlimit="10"/>
<path d="M194.33 46.11L193.83 50.06H214.25L214.62 46.11H194.33Z" fill="white" stroke="#0047FF" stroke-miterlimit="10"/>
<path d="M227.16 46.11L226.66 50.06H247.08L247.45 46.11H227.16Z" fill="white" stroke="#0047FF" stroke-miterlimit="10"/>
<path d="M210.98 181.7L210.86 183.68H237.44L237.7 181.7H210.98Z" fill="white" stroke="#0047FF" stroke-miterlimit="10"/>
<path d="M210.25 186.1L210.12 188.08H223.68L223.95 186.1H210.25Z" fill="white" stroke="#0047FF" stroke-miterlimit="10"/>
<path d="M255.62 64.1L255.49 66.07H282.07L282.34 64.1H255.62Z" fill="white" stroke="#0047FF" stroke-miterlimit="10"/>
<path d="M254.88 68.5L254.76 70.48H268.31L268.58 68.5H254.88Z" fill="white" stroke="#0047FF" stroke-miterlimit="10"/>
<path d="M259.99 46.11L259.49 50.06H279.91L280.28 46.11H259.99Z" fill="white" stroke="#0047FF" stroke-miterlimit="10"/>
<path d="M289.59 46.11L289.09 50.06H309.51L309.88 46.11H289.59Z" fill="white" stroke="#0047FF" stroke-miterlimit="10"/>
<path d="M309.86 246.73C330.897 246.73 347.95 229.677 347.95 208.64C347.95 187.603 330.897 170.55 309.86 170.55C288.823 170.55 271.77 187.603 271.77 208.64C271.77 229.677 288.823 246.73 309.86 246.73Z" fill="white" stroke="#0047FF" stroke-miterlimit="10"/>
<path d="M332.34 223.47L329.22 219.05C327.34 216.39 326.33 213.21 326.33 209.94V200.01C326.33 191.9 320.37 185.18 312.59 184V179.26C312.59 178.06 311.61 177.08 310.41 177.08C309.21 177.08 308.23 178.06 308.23 179.26V183.93C300.18 184.87 293.93 191.72 293.93 200.02V210.31C293.93 213.85 292.75 217.28 290.56 220.06L287.88 223.48L332.34 223.47Z" fill="#162753"/>
<path d="M307.77 230.69C310.16 231.69 313.12 231.18 315.04 229.44C315.88 228.68 316.5 227.69 316.88 226.62L303.93 226.53C304.56 228.36 305.97 229.94 307.77 230.69Z" fill="#162753"/>
<path d="M332.34 198.08C338.421 198.08 343.35 193.151 343.35 187.07C343.35 180.989 338.421 176.06 332.34 176.06C326.259 176.06 321.33 180.989 321.33 187.07C321.33 193.151 326.259 198.08 332.34 198.08Z" fill="#0047FF"/>
<path d="M332.601 188.359H330.805L330.665 177.121H332.752L332.601 188.359ZM330.59 191.779C330.59 191.456 330.687 191.187 330.88 190.972C331.081 190.75 331.375 190.639 331.762 190.639C332.15 190.639 332.443 190.75 332.644 190.972C332.845 191.187 332.945 191.456 332.945 191.779C332.945 192.102 332.845 192.37 332.644 192.586C332.443 192.793 332.15 192.897 331.762 192.897C331.375 192.897 331.081 192.793 330.88 192.586C330.687 192.37 330.59 192.102 330.59 191.779Z" fill="white"/>
<path d="M91.4842 170.75L91.1458 170.783L91.5936 175.441L91.9321 175.409L91.4842 170.75Z" stroke="#0047FF" stroke-miterlimit="10"/>
<path d="M92.0807 177.042L91.7422 177.074L91.9212 178.956L92.2596 178.924L92.0807 177.042Z" stroke="#0047FF" stroke-miterlimit="10"/>
<path d="M93.97 209.19L89.11 158.66L49.66 138.11C46.23 136.33 42.08 136.72 39.05 139.13L4.23999 166.81L9.09999 217.34L93.97 209.19Z" stroke="#0047FF" stroke-miterlimit="10"/>
<path d="M87.2852 173.551L86.9468 173.583L87.3947 178.242L87.7331 178.209L87.2852 173.551Z" fill="#0047FF"/>
<path d="M87.9022 179.825L87.5637 179.857L87.7446 181.738L88.083 181.706L87.9022 179.825Z" fill="#0047FF"/>
<path d="M4.89734 220.151L89.7651 211.992L84.9074 161.465L0.039607 169.625L4.89734 220.151Z" fill="#0047FF"/>
<path d="M4.89734 220.151L89.7651 211.992L84.9074 161.465L0.039607 169.625L4.89734 220.151Z" fill="#162753"/>
<path opacity="0.1" d="M45.1301 193.1L0.0500488 169.62L84.92 161.46L45.1301 193.1Z" fill="#1A2E35"/>
<path d="M34.86 141.93L0.0500488 169.61L84.92 161.45L45.47 140.9C42.04 139.13 37.88 139.53 34.86 141.93Z" fill="#0047FF"/>
<path d="M66.09 161.14L77.58 164.21L77.85 167.08L45.13 193.1L8.05 173.78L7.5 168.05L66.09 161.14Z" fill="white"/>
<path d="M66.0901 161.14L68.2601 167.15L77.5801 164.21" fill="#E1E1E1"/>
<path d="M66.0901 161.14L67.2001 166.1L77.5801 164.21" fill="#F0F0F0"/>
<path d="M51.9101 187.69L89.7701 211.98L4.90015 220.14L37.4401 189.08C41.3701 185.34 47.3501 184.76 51.9101 187.69Z" fill="#0047FF"/>
</svg>
