<svg width="494" height="230" viewBox="0 0 494 230" fill="none" xmlns="http://www.w3.org/2000/svg">
<path d="M3.44991 160.47C4.16236 160.47 4.73991 159.892 4.73991 159.18C4.73991 158.468 4.16236 157.89 3.44991 157.89C2.73747 157.89 2.15991 158.468 2.15991 159.18C2.15991 159.892 2.73747 160.47 3.44991 160.47Z" fill="#0047FF"/>
<path d="M14.8999 160.47C15.6123 160.47 16.1899 159.892 16.1899 159.18C16.1899 158.468 15.6123 157.89 14.8999 157.89C14.1874 157.89 13.6099 158.468 13.6099 159.18C13.6099 159.892 14.1874 160.47 14.8999 160.47Z" fill="#0047FF"/>
<path d="M26.3498 160.47C27.0623 160.47 27.6398 159.892 27.6398 159.18C27.6398 158.468 27.0623 157.89 26.3498 157.89C25.6374 157.89 25.0598 158.468 25.0598 159.18C25.0598 159.892 25.6374 160.47 26.3498 160.47Z" fill="#0047FF"/>
<path d="M37.8 160.47C38.5125 160.47 39.09 159.892 39.09 159.18C39.09 158.468 38.5125 157.89 37.8 157.89C37.0876 157.89 36.51 158.468 36.51 159.18C36.51 159.892 37.0876 160.47 37.8 160.47Z" fill="#0047FF"/>
<path d="M49.26 160.47C49.9724 160.47 50.55 159.892 50.55 159.18C50.55 158.468 49.9724 157.89 49.26 157.89C48.5475 157.89 47.97 158.468 47.97 159.18C47.97 159.892 48.5475 160.47 49.26 160.47Z" fill="#0047FF"/>
<path d="M60.7099 160.47C61.4224 160.47 61.9999 159.892 61.9999 159.18C61.9999 158.468 61.4224 157.89 60.7099 157.89C59.9975 157.89 59.4199 158.468 59.4199 159.18C59.4199 159.892 59.9975 160.47 60.7099 160.47Z" fill="#0047FF"/>
<path d="M72.1599 160.47C72.8723 160.47 73.4499 159.892 73.4499 159.18C73.4499 158.468 72.8723 157.89 72.1599 157.89C71.4474 157.89 70.8699 158.468 70.8699 159.18C70.8699 159.892 71.4474 160.47 72.1599 160.47Z" fill="#0047FF"/>
<path d="M83.6098 160.47C84.3223 160.47 84.8998 159.892 84.8998 159.18C84.8998 158.468 84.3223 157.89 83.6098 157.89C82.8974 157.89 82.3198 158.468 82.3198 159.18C82.3198 159.892 82.8974 160.47 83.6098 160.47Z" fill="#0047FF"/>
<path d="M95.0698 160.47C95.7822 160.47 96.3598 159.892 96.3598 159.18C96.3598 158.468 95.7822 157.89 95.0698 157.89C94.3573 157.89 93.7798 158.468 93.7798 159.18C93.7798 159.892 94.3573 160.47 95.0698 160.47Z" fill="#0047FF"/>
<path d="M14.8999 149.01C15.6123 149.01 16.1899 148.433 16.1899 147.72C16.1899 147.008 15.6123 146.43 14.8999 146.43C14.1874 146.43 13.6099 147.008 13.6099 147.72C13.6099 148.433 14.1874 149.01 14.8999 149.01Z" fill="#0047FF"/>
<path d="M26.3498 149.01C27.0623 149.01 27.6398 148.433 27.6398 147.72C27.6398 147.008 27.0623 146.43 26.3498 146.43C25.6374 146.43 25.0598 147.008 25.0598 147.72C25.0598 148.433 25.6374 149.01 26.3498 149.01Z" fill="#0047FF"/>
<path d="M37.8 149.01C38.5125 149.01 39.09 148.433 39.09 147.72C39.09 147.008 38.5125 146.43 37.8 146.43C37.0876 146.43 36.51 147.008 36.51 147.72C36.51 148.433 37.0876 149.01 37.8 149.01Z" fill="#0047FF"/>
<path d="M49.26 149.01C49.9724 149.01 50.55 148.433 50.55 147.72C50.55 147.008 49.9724 146.43 49.26 146.43C48.5475 146.43 47.97 147.008 47.97 147.72C47.97 148.433 48.5475 149.01 49.26 149.01Z" fill="#0047FF"/>
<path d="M60.7099 149.01C61.4224 149.01 61.9999 148.433 61.9999 147.72C61.9999 147.008 61.4224 146.43 60.7099 146.43C59.9975 146.43 59.4199 147.008 59.4199 147.72C59.4199 148.433 59.9975 149.01 60.7099 149.01Z" fill="#0047FF"/>
<path d="M72.1599 149.01C72.8723 149.01 73.4499 148.433 73.4499 147.72C73.4499 147.008 72.8723 146.43 72.1599 146.43C71.4474 146.43 70.8699 147.008 70.8699 147.72C70.8699 148.433 71.4474 149.01 72.1599 149.01Z" fill="#0047FF"/>
<path d="M83.6098 149.01C84.3223 149.01 84.8998 148.433 84.8998 147.72C84.8998 147.008 84.3223 146.43 83.6098 146.43C82.8974 146.43 82.3198 147.008 82.3198 147.72C82.3198 148.433 82.8974 149.01 83.6098 149.01Z" fill="#0047FF"/>
<path d="M14.8999 137.56C15.6123 137.56 16.1899 136.982 16.1899 136.27C16.1899 135.558 15.6123 134.98 14.8999 134.98C14.1874 134.98 13.6099 135.558 13.6099 136.27C13.6099 136.982 14.1874 137.56 14.8999 137.56Z" fill="#0047FF"/>
<path d="M26.3498 137.56C27.0623 137.56 27.6398 136.982 27.6398 136.27C27.6398 135.558 27.0623 134.98 26.3498 134.98C25.6374 134.98 25.0598 135.558 25.0598 136.27C25.0598 136.982 25.6374 137.56 26.3498 137.56Z" fill="#0047FF"/>
<path d="M37.8 137.56C38.5125 137.56 39.09 136.982 39.09 136.27C39.09 135.558 38.5125 134.98 37.8 134.98C37.0876 134.98 36.51 135.558 36.51 136.27C36.51 136.982 37.0876 137.56 37.8 137.56Z" fill="#0047FF"/>
<path d="M49.26 137.56C49.9724 137.56 50.55 136.982 50.55 136.27C50.55 135.558 49.9724 134.98 49.26 134.98C48.5475 134.98 47.97 135.558 47.97 136.27C47.97 136.982 48.5475 137.56 49.26 137.56Z" fill="#0047FF"/>
<path d="M60.7099 137.56C61.4224 137.56 61.9999 136.982 61.9999 136.27C61.9999 135.558 61.4224 134.98 60.7099 134.98C59.9975 134.98 59.4199 135.558 59.4199 136.27C59.4199 136.982 59.9975 137.56 60.7099 137.56Z" fill="#0047FF"/>
<path d="M72.1599 137.56C72.8723 137.56 73.4499 136.982 73.4499 136.27C73.4499 135.558 72.8723 134.98 72.1599 134.98C71.4474 134.98 70.8699 135.558 70.8699 136.27C70.8699 136.982 71.4474 137.56 72.1599 137.56Z" fill="#0047FF"/>
<path d="M83.6098 137.56C84.3223 137.56 84.8998 136.982 84.8998 136.27C84.8998 135.558 84.3223 134.98 83.6098 134.98C82.8974 134.98 82.3198 135.558 82.3198 136.27C82.3198 136.982 82.8974 137.56 83.6098 137.56Z" fill="#0047FF"/>
<path d="M37.8 126.11C38.5125 126.11 39.09 125.532 39.09 124.82C39.09 124.108 38.5125 123.53 37.8 123.53C37.0876 123.53 36.51 124.108 36.51 124.82C36.51 125.532 37.0876 126.11 37.8 126.11Z" fill="#0047FF"/>
<path d="M49.26 126.11C49.9724 126.11 50.55 125.532 50.55 124.82C50.55 124.108 49.9724 123.53 49.26 123.53C48.5475 123.53 47.97 124.108 47.97 124.82C47.97 125.532 48.5475 126.11 49.26 126.11Z" fill="#0047FF"/>
<path d="M60.7099 126.11C61.4224 126.11 61.9999 125.532 61.9999 124.82C61.9999 124.108 61.4224 123.53 60.7099 123.53C59.9975 123.53 59.4199 124.108 59.4199 124.82C59.4199 125.532 59.9975 126.11 60.7099 126.11Z" fill="#0047FF"/>
<path d="M3.44991 171.92C4.16236 171.92 4.73991 171.342 4.73991 170.63C4.73991 169.918 4.16236 169.34 3.44991 169.34C2.73747 169.34 2.15991 169.918 2.15991 170.63C2.15991 171.342 2.73747 171.92 3.44991 171.92Z" fill="#0047FF"/>
<path d="M14.8999 171.92C15.6123 171.92 16.1899 171.342 16.1899 170.63C16.1899 169.918 15.6123 169.34 14.8999 169.34C14.1874 169.34 13.6099 169.918 13.6099 170.63C13.6099 171.342 14.1874 171.92 14.8999 171.92Z" fill="#0047FF"/>
<path d="M26.3498 171.92C27.0623 171.92 27.6398 171.342 27.6398 170.63C27.6398 169.918 27.0623 169.34 26.3498 169.34C25.6374 169.34 25.0598 169.918 25.0598 170.63C25.0598 171.342 25.6374 171.92 26.3498 171.92Z" fill="#0047FF"/>
<path d="M37.8 171.92C38.5125 171.92 39.09 171.342 39.09 170.63C39.09 169.918 38.5125 169.34 37.8 169.34C37.0876 169.34 36.51 169.918 36.51 170.63C36.51 171.342 37.0876 171.92 37.8 171.92Z" fill="#0047FF"/>
<path d="M49.26 171.92C49.9724 171.92 50.55 171.342 50.55 170.63C50.55 169.918 49.9724 169.34 49.26 169.34C48.5475 169.34 47.97 169.918 47.97 170.63C47.97 171.342 48.5475 171.92 49.26 171.92Z" fill="#0047FF"/>
<path d="M60.7099 171.92C61.4224 171.92 61.9999 171.342 61.9999 170.63C61.9999 169.918 61.4224 169.34 60.7099 169.34C59.9975 169.34 59.4199 169.918 59.4199 170.63C59.4199 171.342 59.9975 171.92 60.7099 171.92Z" fill="#0047FF"/>
<path d="M72.1599 171.92C72.8723 171.92 73.4499 171.342 73.4499 170.63C73.4499 169.918 72.8723 169.34 72.1599 169.34C71.4474 169.34 70.8699 169.918 70.8699 170.63C70.8699 171.342 71.4474 171.92 72.1599 171.92Z" fill="#0047FF"/>
<path d="M83.6098 171.92C84.3223 171.92 84.8998 171.342 84.8998 170.63C84.8998 169.918 84.3223 169.34 83.6098 169.34C82.8974 169.34 82.3198 169.918 82.3198 170.63C82.3198 171.342 82.8974 171.92 83.6098 171.92Z" fill="#0047FF"/>
<path d="M95.0698 171.92C95.7822 171.92 96.3598 171.342 96.3598 170.63C96.3598 169.918 95.7822 169.34 95.0698 169.34C94.3573 169.34 93.7798 169.918 93.7798 170.63C93.7798 171.342 94.3573 171.92 95.0698 171.92Z" fill="#0047FF"/>
<path d="M3.44991 183.37C4.16236 183.37 4.73991 182.792 4.73991 182.08C4.73991 181.368 4.16236 180.79 3.44991 180.79C2.73747 180.79 2.15991 181.368 2.15991 182.08C2.15991 182.792 2.73747 183.37 3.44991 183.37Z" fill="#0047FF"/>
<path d="M14.8999 183.37C15.6123 183.37 16.1899 182.792 16.1899 182.08C16.1899 181.368 15.6123 180.79 14.8999 180.79C14.1874 180.79 13.6099 181.368 13.6099 182.08C13.6099 182.792 14.1874 183.37 14.8999 183.37Z" fill="#0047FF"/>
<path d="M26.3498 183.37C27.0623 183.37 27.6398 182.792 27.6398 182.08C27.6398 181.368 27.0623 180.79 26.3498 180.79C25.6374 180.79 25.0598 181.368 25.0598 182.08C25.0598 182.792 25.6374 183.37 26.3498 183.37Z" fill="#0047FF"/>
<path d="M37.8 183.37C38.5125 183.37 39.09 182.792 39.09 182.08C39.09 181.368 38.5125 180.79 37.8 180.79C37.0876 180.79 36.51 181.368 36.51 182.08C36.51 182.792 37.0876 183.37 37.8 183.37Z" fill="#0047FF"/>
<path d="M49.26 183.37C49.9724 183.37 50.55 182.792 50.55 182.08C50.55 181.368 49.9724 180.79 49.26 180.79C48.5475 180.79 47.97 181.368 47.97 182.08C47.97 182.792 48.5475 183.37 49.26 183.37Z" fill="#0047FF"/>
<path d="M60.7099 183.37C61.4224 183.37 61.9999 182.792 61.9999 182.08C61.9999 181.368 61.4224 180.79 60.7099 180.79C59.9975 180.79 59.4199 181.368 59.4199 182.08C59.4199 182.792 59.9975 183.37 60.7099 183.37Z" fill="#0047FF"/>
<path d="M72.1599 183.37C72.8723 183.37 73.4499 182.792 73.4499 182.08C73.4499 181.368 72.8723 180.79 72.1599 180.79C71.4474 180.79 70.8699 181.368 70.8699 182.08C70.8699 182.792 71.4474 183.37 72.1599 183.37Z" fill="#0047FF"/>
<path d="M83.6098 183.37C84.3223 183.37 84.8998 182.792 84.8998 182.08C84.8998 181.368 84.3223 180.79 83.6098 180.79C82.8974 180.79 82.3198 181.368 82.3198 182.08C82.3198 182.792 82.8974 183.37 83.6098 183.37Z" fill="#0047FF"/>
<path d="M95.0698 183.37C95.7822 183.37 96.3598 182.792 96.3598 182.08C96.3598 181.368 95.7822 180.79 95.0698 180.79C94.3573 180.79 93.7798 181.368 93.7798 182.08C93.7798 182.792 94.3573 183.37 95.0698 183.37Z" fill="#0047FF"/>
<path d="M14.8999 194.82C15.6123 194.82 16.1899 194.242 16.1899 193.53C16.1899 192.818 15.6123 192.24 14.8999 192.24C14.1874 192.24 13.6099 192.818 13.6099 193.53C13.6099 194.242 14.1874 194.82 14.8999 194.82Z" fill="#0047FF"/>
<path d="M26.3498 194.82C27.0623 194.82 27.6398 194.242 27.6398 193.53C27.6398 192.818 27.0623 192.24 26.3498 192.24C25.6374 192.24 25.0598 192.818 25.0598 193.53C25.0598 194.242 25.6374 194.82 26.3498 194.82Z" fill="#0047FF"/>
<path d="M37.8 194.82C38.5125 194.82 39.09 194.242 39.09 193.53C39.09 192.818 38.5125 192.24 37.8 192.24C37.0876 192.24 36.51 192.818 36.51 193.53C36.51 194.242 37.0876 194.82 37.8 194.82Z" fill="#0047FF"/>
<path d="M49.26 194.82C49.9724 194.82 50.55 194.242 50.55 193.53C50.55 192.818 49.9724 192.24 49.26 192.24C48.5475 192.24 47.97 192.818 47.97 193.53C47.97 194.242 48.5475 194.82 49.26 194.82Z" fill="#0047FF"/>
<path d="M60.7099 194.82C61.4224 194.82 61.9999 194.242 61.9999 193.53C61.9999 192.818 61.4224 192.24 60.7099 192.24C59.9975 192.24 59.4199 192.818 59.4199 193.53C59.4199 194.242 59.9975 194.82 60.7099 194.82Z" fill="#0047FF"/>
<path d="M72.1599 194.82C72.8723 194.82 73.4499 194.242 73.4499 193.53C73.4499 192.818 72.8723 192.24 72.1599 192.24C71.4474 192.24 70.8699 192.818 70.8699 193.53C70.8699 194.242 71.4474 194.82 72.1599 194.82Z" fill="#0047FF"/>
<path d="M83.6098 194.82C84.3223 194.82 84.8998 194.242 84.8998 193.53C84.8998 192.818 84.3223 192.24 83.6098 192.24C82.8974 192.24 82.3198 192.818 82.3198 193.53C82.3198 194.242 82.8974 194.82 83.6098 194.82Z" fill="#0047FF"/>
<path d="M14.8999 206.28C15.6123 206.28 16.1899 205.702 16.1899 204.99C16.1899 204.278 15.6123 203.7 14.8999 203.7C14.1874 203.7 13.6099 204.278 13.6099 204.99C13.6099 205.702 14.1874 206.28 14.8999 206.28Z" fill="#0047FF"/>
<path d="M26.3498 206.28C27.0623 206.28 27.6398 205.702 27.6398 204.99C27.6398 204.278 27.0623 203.7 26.3498 203.7C25.6374 203.7 25.0598 204.278 25.0598 204.99C25.0598 205.702 25.6374 206.28 26.3498 206.28Z" fill="#0047FF"/>
<path d="M37.8 206.28C38.5125 206.28 39.09 205.702 39.09 204.99C39.09 204.278 38.5125 203.7 37.8 203.7C37.0876 203.7 36.51 204.278 36.51 204.99C36.51 205.702 37.0876 206.28 37.8 206.28Z" fill="#0047FF"/>
<path d="M49.26 206.28C49.9724 206.28 50.55 205.702 50.55 204.99C50.55 204.278 49.9724 203.7 49.26 203.7C48.5475 203.7 47.97 204.278 47.97 204.99C47.97 205.702 48.5475 206.28 49.26 206.28Z" fill="#0047FF"/>
<path d="M60.7099 206.28C61.4224 206.28 61.9999 205.702 61.9999 204.99C61.9999 204.278 61.4224 203.7 60.7099 203.7C59.9975 203.7 59.4199 204.278 59.4199 204.99C59.4199 205.702 59.9975 206.28 60.7099 206.28Z" fill="#0047FF"/>
<path d="M72.1599 206.28C72.8723 206.28 73.4499 205.702 73.4499 204.99C73.4499 204.278 72.8723 203.7 72.1599 203.7C71.4474 203.7 70.8699 204.278 70.8699 204.99C70.8699 205.702 71.4474 206.28 72.1599 206.28Z" fill="#0047FF"/>
<path d="M83.6098 206.28C84.3223 206.28 84.8998 205.702 84.8998 204.99C84.8998 204.278 84.3223 203.7 83.6098 203.7C82.8974 203.7 82.3198 204.278 82.3198 204.99C82.3198 205.702 82.8974 206.28 83.6098 206.28Z" fill="#0047FF"/>
<path d="M37.8 217.73C38.5125 217.73 39.09 217.152 39.09 216.44C39.09 215.728 38.5125 215.15 37.8 215.15C37.0876 215.15 36.51 215.728 36.51 216.44C36.51 217.152 37.0876 217.73 37.8 217.73Z" fill="#0047FF"/>
<path d="M49.26 217.73C49.9724 217.73 50.55 217.152 50.55 216.44C50.55 215.728 49.9724 215.15 49.26 215.15C48.5475 215.15 47.97 215.728 47.97 216.44C47.97 217.152 48.5475 217.73 49.26 217.73Z" fill="#0047FF"/>
<path d="M60.7099 217.73C61.4224 217.73 61.9999 217.152 61.9999 216.44C61.9999 215.728 61.4224 215.15 60.7099 215.15C59.9975 215.15 59.4199 215.728 59.4199 216.44C59.4199 217.152 59.9975 217.73 60.7099 217.73Z" fill="#0047FF"/>
<path d="M352.74 37.1499C353.452 37.1499 354.03 36.5724 354.03 35.8599C354.03 35.1475 353.452 34.5699 352.74 34.5699C352.027 34.5699 351.45 35.1475 351.45 35.8599C351.45 36.5724 352.027 37.1499 352.74 37.1499Z" fill="#0047FF"/>
<path d="M364.19 37.1499C364.902 37.1499 365.48 36.5724 365.48 35.8599C365.48 35.1475 364.902 34.5699 364.19 34.5699C363.477 34.5699 362.9 35.1475 362.9 35.8599C362.9 36.5724 363.477 37.1499 364.19 37.1499Z" fill="#0047FF"/>
<path d="M375.64 37.1499C376.352 37.1499 376.93 36.5724 376.93 35.8599C376.93 35.1475 376.352 34.5699 375.64 34.5699C374.927 34.5699 374.35 35.1475 374.35 35.8599C374.35 36.5724 374.927 37.1499 375.64 37.1499Z" fill="#0047FF"/>
<path d="M387.09 37.1499C387.802 37.1499 388.38 36.5724 388.38 35.8599C388.38 35.1475 387.802 34.5699 387.09 34.5699C386.377 34.5699 385.8 35.1475 385.8 35.8599C385.8 36.5724 386.377 37.1499 387.09 37.1499Z" fill="#0047FF"/>
<path d="M398.55 37.1499C399.262 37.1499 399.84 36.5724 399.84 35.8599C399.84 35.1475 399.262 34.5699 398.55 34.5699C397.838 34.5699 397.26 35.1475 397.26 35.8599C397.26 36.5724 397.838 37.1499 398.55 37.1499Z" fill="#0047FF"/>
<path d="M410 37.1499C410.712 37.1499 411.29 36.5724 411.29 35.8599C411.29 35.1475 410.712 34.5699 410 34.5699C409.288 34.5699 408.71 35.1475 408.71 35.8599C408.71 36.5724 409.288 37.1499 410 37.1499Z" fill="#0047FF"/>
<path d="M421.45 37.1499C422.162 37.1499 422.74 36.5724 422.74 35.8599C422.74 35.1475 422.162 34.5699 421.45 34.5699C420.737 34.5699 420.16 35.1475 420.16 35.8599C420.16 36.5724 420.737 37.1499 421.45 37.1499Z" fill="#0047FF"/>
<path d="M432.9 37.1499C433.612 37.1499 434.19 36.5724 434.19 35.8599C434.19 35.1475 433.612 34.5699 432.9 34.5699C432.187 34.5699 431.61 35.1475 431.61 35.8599C431.61 36.5724 432.187 37.1499 432.9 37.1499Z" fill="#0047FF"/>
<path d="M444.36 37.1499C445.072 37.1499 445.65 36.5724 445.65 35.8599C445.65 35.1475 445.072 34.5699 444.36 34.5699C443.647 34.5699 443.07 35.1475 443.07 35.8599C443.07 36.5724 443.647 37.1499 444.36 37.1499Z" fill="#0047FF"/>
<path d="M364.19 25.7C364.902 25.7 365.48 25.1224 365.48 24.41C365.48 23.6975 364.902 23.12 364.19 23.12C363.477 23.12 362.9 23.6975 362.9 24.41C362.9 25.1224 363.477 25.7 364.19 25.7Z" fill="#0047FF"/>
<path d="M375.64 25.7C376.352 25.7 376.93 25.1224 376.93 24.41C376.93 23.6975 376.352 23.12 375.64 23.12C374.927 23.12 374.35 23.6975 374.35 24.41C374.35 25.1224 374.927 25.7 375.64 25.7Z" fill="#0047FF"/>
<path d="M387.09 25.7C387.802 25.7 388.38 25.1224 388.38 24.41C388.38 23.6975 387.802 23.12 387.09 23.12C386.377 23.12 385.8 23.6975 385.8 24.41C385.8 25.1224 386.377 25.7 387.09 25.7Z" fill="#0047FF"/>
<path d="M398.55 25.7C399.262 25.7 399.84 25.1224 399.84 24.41C399.84 23.6975 399.262 23.12 398.55 23.12C397.838 23.12 397.26 23.6975 397.26 24.41C397.26 25.1224 397.838 25.7 398.55 25.7Z" fill="#0047FF"/>
<path d="M410 25.7C410.712 25.7 411.29 25.1224 411.29 24.41C411.29 23.6975 410.712 23.12 410 23.12C409.288 23.12 408.71 23.6975 408.71 24.41C408.71 25.1224 409.288 25.7 410 25.7Z" fill="#0047FF"/>
<path d="M421.45 25.7C422.162 25.7 422.74 25.1224 422.74 24.41C422.74 23.6975 422.162 23.12 421.45 23.12C420.737 23.12 420.16 23.6975 420.16 24.41C420.16 25.1224 420.737 25.7 421.45 25.7Z" fill="#0047FF"/>
<path d="M432.9 25.7C433.612 25.7 434.19 25.1224 434.19 24.41C434.19 23.6975 433.612 23.12 432.9 23.12C432.187 23.12 431.61 23.6975 431.61 24.41C431.61 25.1224 432.187 25.7 432.9 25.7Z" fill="#0047FF"/>
<path d="M364.19 14.25C364.902 14.25 365.48 13.6724 365.48 12.96C365.48 12.2475 364.902 11.67 364.19 11.67C363.477 11.67 362.9 12.2475 362.9 12.96C362.9 13.6724 363.477 14.25 364.19 14.25Z" fill="#0047FF"/>
<path d="M375.64 14.25C376.352 14.25 376.93 13.6724 376.93 12.96C376.93 12.2475 376.352 11.67 375.64 11.67C374.927 11.67 374.35 12.2475 374.35 12.96C374.35 13.6724 374.927 14.25 375.64 14.25Z" fill="#0047FF"/>
<path d="M387.09 14.25C387.802 14.25 388.38 13.6724 388.38 12.96C388.38 12.2475 387.802 11.67 387.09 11.67C386.377 11.67 385.8 12.2475 385.8 12.96C385.8 13.6724 386.377 14.25 387.09 14.25Z" fill="#0047FF"/>
<path d="M398.55 14.25C399.262 14.25 399.84 13.6724 399.84 12.96C399.84 12.2475 399.262 11.67 398.55 11.67C397.838 11.67 397.26 12.2475 397.26 12.96C397.26 13.6724 397.838 14.25 398.55 14.25Z" fill="#0047FF"/>
<path d="M410 14.25C410.712 14.25 411.29 13.6724 411.29 12.96C411.29 12.2475 410.712 11.67 410 11.67C409.288 11.67 408.71 12.2475 408.71 12.96C408.71 13.6724 409.288 14.25 410 14.25Z" fill="#0047FF"/>
<path d="M421.45 14.25C422.162 14.25 422.74 13.6724 422.74 12.96C422.74 12.2475 422.162 11.67 421.45 11.67C420.737 11.67 420.16 12.2475 420.16 12.96C420.16 13.6724 420.737 14.25 421.45 14.25Z" fill="#0047FF"/>
<path d="M432.9 14.25C433.612 14.25 434.19 13.6724 434.19 12.96C434.19 12.2475 433.612 11.67 432.9 11.67C432.187 11.67 431.61 12.2475 431.61 12.96C431.61 13.6724 432.187 14.25 432.9 14.25Z" fill="#0047FF"/>
<path d="M387.09 2.79997C387.802 2.79997 388.38 2.22242 388.38 1.50997C388.38 0.797524 387.802 0.219971 387.09 0.219971C386.377 0.219971 385.8 0.797524 385.8 1.50997C385.8 2.22242 386.377 2.79997 387.09 2.79997Z" fill="#0047FF"/>
<path d="M398.55 2.79997C399.262 2.79997 399.84 2.22242 399.84 1.50997C399.84 0.797524 399.262 0.219971 398.55 0.219971C397.838 0.219971 397.26 0.797524 397.26 1.50997C397.26 2.22242 397.838 2.79997 398.55 2.79997Z" fill="#0047FF"/>
<path d="M410 2.79997C410.712 2.79997 411.29 2.22242 411.29 1.50997C411.29 0.797524 410.712 0.219971 410 0.219971C409.288 0.219971 408.71 0.797524 408.71 1.50997C408.71 2.22242 409.288 2.79997 410 2.79997Z" fill="#0047FF"/>
<path d="M352.74 48.61C353.452 48.61 354.03 48.0324 354.03 47.32C354.03 46.6075 353.452 46.03 352.74 46.03C352.027 46.03 351.45 46.6075 351.45 47.32C351.45 48.0324 352.027 48.61 352.74 48.61Z" fill="#0047FF"/>
<path d="M364.19 48.61C364.902 48.61 365.48 48.0324 365.48 47.32C365.48 46.6075 364.902 46.03 364.19 46.03C363.477 46.03 362.9 46.6075 362.9 47.32C362.9 48.0324 363.477 48.61 364.19 48.61Z" fill="#0047FF"/>
<path d="M375.64 48.61C376.352 48.61 376.93 48.0324 376.93 47.32C376.93 46.6075 376.352 46.03 375.64 46.03C374.927 46.03 374.35 46.6075 374.35 47.32C374.35 48.0324 374.927 48.61 375.64 48.61Z" fill="#0047FF"/>
<path d="M387.09 48.61C387.802 48.61 388.38 48.0324 388.38 47.32C388.38 46.6075 387.802 46.03 387.09 46.03C386.377 46.03 385.8 46.6075 385.8 47.32C385.8 48.0324 386.377 48.61 387.09 48.61Z" fill="#0047FF"/>
<path d="M398.55 48.61C399.262 48.61 399.84 48.0324 399.84 47.32C399.84 46.6075 399.262 46.03 398.55 46.03C397.838 46.03 397.26 46.6075 397.26 47.32C397.26 48.0324 397.838 48.61 398.55 48.61Z" fill="#0047FF"/>
<path d="M410 48.61C410.712 48.61 411.29 48.0324 411.29 47.32C411.29 46.6075 410.712 46.03 410 46.03C409.288 46.03 408.71 46.6075 408.71 47.32C408.71 48.0324 409.288 48.61 410 48.61Z" fill="#0047FF"/>
<path d="M421.45 48.61C422.162 48.61 422.74 48.0324 422.74 47.32C422.74 46.6075 422.162 46.03 421.45 46.03C420.737 46.03 420.16 46.6075 420.16 47.32C420.16 48.0324 420.737 48.61 421.45 48.61Z" fill="#0047FF"/>
<path d="M432.9 48.61C433.612 48.61 434.19 48.0324 434.19 47.32C434.19 46.6075 433.612 46.03 432.9 46.03C432.187 46.03 431.61 46.6075 431.61 47.32C431.61 48.0324 432.187 48.61 432.9 48.61Z" fill="#0047FF"/>
<path d="M444.36 48.61C445.072 48.61 445.65 48.0324 445.65 47.32C445.65 46.6075 445.072 46.03 444.36 46.03C443.647 46.03 443.07 46.6075 443.07 47.32C443.07 48.0324 443.647 48.61 444.36 48.61Z" fill="#0047FF"/>
<path d="M352.74 60.06C353.452 60.06 354.03 59.4824 354.03 58.77C354.03 58.0575 353.452 57.48 352.74 57.48C352.027 57.48 351.45 58.0575 351.45 58.77C351.45 59.4824 352.027 60.06 352.74 60.06Z" fill="#0047FF"/>
<path d="M364.19 60.06C364.902 60.06 365.48 59.4824 365.48 58.77C365.48 58.0575 364.902 57.48 364.19 57.48C363.477 57.48 362.9 58.0575 362.9 58.77C362.9 59.4824 363.477 60.06 364.19 60.06Z" fill="#0047FF"/>
<path d="M375.64 60.06C376.352 60.06 376.93 59.4824 376.93 58.77C376.93 58.0575 376.352 57.48 375.64 57.48C374.927 57.48 374.35 58.0575 374.35 58.77C374.35 59.4824 374.927 60.06 375.64 60.06Z" fill="#0047FF"/>
<path d="M387.09 60.06C387.802 60.06 388.38 59.4824 388.38 58.77C388.38 58.0575 387.802 57.48 387.09 57.48C386.377 57.48 385.8 58.0575 385.8 58.77C385.8 59.4824 386.377 60.06 387.09 60.06Z" fill="#0047FF"/>
<path d="M398.55 60.06C399.262 60.06 399.84 59.4824 399.84 58.77C399.84 58.0575 399.262 57.48 398.55 57.48C397.838 57.48 397.26 58.0575 397.26 58.77C397.26 59.4824 397.838 60.06 398.55 60.06Z" fill="#0047FF"/>
<path d="M410 60.06C410.712 60.06 411.29 59.4824 411.29 58.77C411.29 58.0575 410.712 57.48 410 57.48C409.288 57.48 408.71 58.0575 408.71 58.77C408.71 59.4824 409.288 60.06 410 60.06Z" fill="#0047FF"/>
<path d="M421.45 60.06C422.162 60.06 422.74 59.4824 422.74 58.77C422.74 58.0575 422.162 57.48 421.45 57.48C420.737 57.48 420.16 58.0575 420.16 58.77C420.16 59.4824 420.737 60.06 421.45 60.06Z" fill="#0047FF"/>
<path d="M432.9 60.06C433.612 60.06 434.19 59.4824 434.19 58.77C434.19 58.0575 433.612 57.48 432.9 57.48C432.187 57.48 431.61 58.0575 431.61 58.77C431.61 59.4824 432.187 60.06 432.9 60.06Z" fill="#0047FF"/>
<path d="M444.36 60.06C445.072 60.06 445.65 59.4824 445.65 58.77C445.65 58.0575 445.072 57.48 444.36 57.48C443.647 57.48 443.07 58.0575 443.07 58.77C443.07 59.4824 443.647 60.06 444.36 60.06Z" fill="#0047FF"/>
<path d="M364.19 71.5099C364.902 71.5099 365.48 70.9324 365.48 70.2199C365.48 69.5075 364.902 68.9299 364.19 68.9299C363.477 68.9299 362.9 69.5075 362.9 70.2199C362.9 70.9324 363.477 71.5099 364.19 71.5099Z" fill="#0047FF"/>
<path d="M375.64 71.5099C376.352 71.5099 376.93 70.9324 376.93 70.2199C376.93 69.5075 376.352 68.9299 375.64 68.9299C374.927 68.9299 374.35 69.5075 374.35 70.2199C374.35 70.9324 374.927 71.5099 375.64 71.5099Z" fill="#0047FF"/>
<path d="M387.09 71.5099C387.802 71.5099 388.38 70.9324 388.38 70.2199C388.38 69.5075 387.802 68.9299 387.09 68.9299C386.377 68.9299 385.8 69.5075 385.8 70.2199C385.8 70.9324 386.377 71.5099 387.09 71.5099Z" fill="#0047FF"/>
<path d="M398.55 71.5099C399.262 71.5099 399.84 70.9324 399.84 70.2199C399.84 69.5075 399.262 68.9299 398.55 68.9299C397.838 68.9299 397.26 69.5075 397.26 70.2199C397.26 70.9324 397.838 71.5099 398.55 71.5099Z" fill="#0047FF"/>
<path d="M410 71.5099C410.712 71.5099 411.29 70.9324 411.29 70.2199C411.29 69.5075 410.712 68.9299 410 68.9299C409.288 68.9299 408.71 69.5075 408.71 70.2199C408.71 70.9324 409.288 71.5099 410 71.5099Z" fill="#0047FF"/>
<path d="M421.45 71.5099C422.162 71.5099 422.74 70.9324 422.74 70.2199C422.74 69.5075 422.162 68.9299 421.45 68.9299C420.737 68.9299 420.16 69.5075 420.16 70.2199C420.16 70.9324 420.737 71.5099 421.45 71.5099Z" fill="#0047FF"/>
<path d="M432.9 71.5099C433.612 71.5099 434.19 70.9324 434.19 70.2199C434.19 69.5075 433.612 68.9299 432.9 68.9299C432.187 68.9299 431.61 69.5075 431.61 70.2199C431.61 70.9324 432.187 71.5099 432.9 71.5099Z" fill="#0047FF"/>
<path d="M364.19 82.96C364.902 82.96 365.48 82.3824 365.48 81.67C365.48 80.9576 364.902 80.38 364.19 80.38C363.477 80.38 362.9 80.9576 362.9 81.67C362.9 82.3824 363.477 82.96 364.19 82.96Z" fill="#0047FF"/>
<path d="M375.64 82.96C376.352 82.96 376.93 82.3824 376.93 81.67C376.93 80.9576 376.352 80.38 375.64 80.38C374.927 80.38 374.35 80.9576 374.35 81.67C374.35 82.3824 374.927 82.96 375.64 82.96Z" fill="#0047FF"/>
<path d="M387.09 82.96C387.802 82.96 388.38 82.3824 388.38 81.67C388.38 80.9576 387.802 80.38 387.09 80.38C386.377 80.38 385.8 80.9576 385.8 81.67C385.8 82.3824 386.377 82.96 387.09 82.96Z" fill="#0047FF"/>
<path d="M398.55 82.96C399.262 82.96 399.84 82.3824 399.84 81.67C399.84 80.9576 399.262 80.38 398.55 80.38C397.838 80.38 397.26 80.9576 397.26 81.67C397.26 82.3824 397.838 82.96 398.55 82.96Z" fill="#0047FF"/>
<path d="M410 82.96C410.712 82.96 411.29 82.3824 411.29 81.67C411.29 80.9576 410.712 80.38 410 80.38C409.288 80.38 408.71 80.9576 408.71 81.67C408.71 82.3824 409.288 82.96 410 82.96Z" fill="#0047FF"/>
<path d="M421.45 82.96C422.162 82.96 422.74 82.3824 422.74 81.67C422.74 80.9576 422.162 80.38 421.45 80.38C420.737 80.38 420.16 80.9576 420.16 81.67C420.16 82.3824 420.737 82.96 421.45 82.96Z" fill="#0047FF"/>
<path d="M432.9 82.96C433.612 82.96 434.19 82.3824 434.19 81.67C434.19 80.9576 433.612 80.38 432.9 80.38C432.187 80.38 431.61 80.9576 431.61 81.67C431.61 82.3824 432.187 82.96 432.9 82.96Z" fill="#0047FF"/>
<path d="M387.09 94.42C387.802 94.42 388.38 93.8424 388.38 93.13C388.38 92.4175 387.802 91.84 387.09 91.84C386.377 91.84 385.8 92.4175 385.8 93.13C385.8 93.8424 386.377 94.42 387.09 94.42Z" fill="#0047FF"/>
<path d="M398.55 94.42C399.262 94.42 399.84 93.8424 399.84 93.13C399.84 92.4175 399.262 91.84 398.55 91.84C397.838 91.84 397.26 92.4175 397.26 93.13C397.26 93.8424 397.838 94.42 398.55 94.42Z" fill="#0047FF"/>
<path d="M410 94.42C410.712 94.42 411.29 93.8424 411.29 93.13C411.29 92.4175 410.712 91.84 410 91.84C409.288 91.84 408.71 92.4175 408.71 93.13C408.71 93.8424 409.288 94.42 410 94.42Z" fill="#0047FF"/>
<path d="M140.75 221.56L133.38 198.09H30.9001L24.9301 221.56C24.5401 223.07 25.4601 224.6 26.7401 224.6H138.52C140.09 224.61 141.22 223.07 140.75 221.56ZM38.2501 211.35L33.8701 206.97L38.2501 202.61L42.6101 206.97L38.2501 211.35Z" fill="white" stroke="#0047FF" stroke-miterlimit="10"/>
<path d="M42.6201 206.97L38.2501 211.35L33.8701 206.97L38.2501 202.61L42.6201 206.97Z" fill="white" stroke="#0047FF" stroke-miterlimit="10"/>
<path d="M155.35 194.05H43.5702C42.2902 194.05 41.3702 192.51 41.7602 191.01L47.7302 167.54H150.21L157.58 191.01C158.06 192.52 156.93 194.05 155.35 194.05Z" fill="white" stroke="#0047FF" stroke-miterlimit="10"/>
<path d="M55.0928 176.087L50.7229 180.457L55.0928 184.827L59.4627 180.457L55.0928 176.087Z" fill="white" stroke="#0047FF" stroke-miterlimit="10"/>
<path d="M11.86 144.81C9.43996 158.36 21.17 166.98 25.96 163.08C30.31 159.85 24.56 147.1 11.86 144.81Z" fill="#99B5FF"/>
<path d="M32.7198 142.28C25.5998 143.86 23.7798 151.36 26.6698 152.9C29.1398 154.37 34.1898 148.96 32.7198 142.28Z" fill="#0047FF"/>
<path d="M39.08 170.63C31.8 171.02 28.77 178.11 31.36 180.11C33.55 181.96 39.43 177.45 39.08 170.63Z" fill="#0047FF"/>
<path d="M55.3501 152.95C53.3201 161.43 43.5301 166.71 35.9401 166.71C31.8901 166.71 28.4601 165.21 27.1701 161.9C27.1701 161.9 27.1701 161.9 27.1701 161.89C25.8601 157.89 31.7501 141.2 55.3501 152.95Z" fill="#99B5FF"/>
<path d="M27.0601 193.14H26.3501C25.7801 193.14 25.3201 192.68 25.3201 192.11V163.7C25.3201 163.13 25.7801 162.67 26.3501 162.67H27.0601C27.6301 162.67 28.0901 163.13 28.0901 163.7V192.11C28.0901 192.68 27.6301 193.14 27.0601 193.14Z" fill="#99B5FF"/>
<path d="M383.72 37.51H98.71V221.85H383.72V37.51Z" fill="white" stroke="#0047FF" stroke-miterlimit="10"/>
<path d="M394.49 41.55H109.48V225.89H394.49V41.55Z" fill="white" stroke="#0047FF" stroke-miterlimit="10"/>
<path d="M394.49 41.55H109.87V61.13H394.49V41.55Z" fill="#0047FF"/>
<path d="M394.49 205.89H109.87V225.47H394.49V205.89Z" fill="#0047FF"/>
<path d="M133.45 118.01H210.57" stroke="#162753" stroke-width="2" stroke-miterlimit="10"/>
<path d="M133.45 131.75H190.7" stroke="#162753" stroke-width="2" stroke-miterlimit="10"/>
<path d="M239.19 131.75H271.52" stroke="#162753" stroke-width="2" stroke-miterlimit="10"/>
<path d="M133.45 159.23H174.53" stroke="#0047FF" stroke-width="3" stroke-miterlimit="10"/>
<path d="M133.45 145.49H229.76" stroke="#162753" stroke-width="2" stroke-miterlimit="10"/>
<path d="M133.45 172.97H194.74" stroke="#162753" stroke-width="2" stroke-miterlimit="10"/>
<path d="M133.45 186.71H190.7" stroke="#0047FF" stroke-width="3" stroke-miterlimit="10"/>
<path d="M316.65 198.83H373.9" stroke="#0047FF" stroke-miterlimit="10"/>
<path d="M371.21 113.66H318.67V183.71H371.21V113.66Z" fill="#162753"/>
<path d="M345.28 145.01C348.66 145.01 351.78 143.36 353.77 140.85C355.24 139.03 356.11 136.69 356.11 134.09C356.11 128.11 351.26 123.17 345.28 123.17C339.22 123.17 334.36 128.11 334.36 134.09C334.36 136.69 335.23 139.03 336.7 140.85C338.7 143.37 341.81 145.01 345.28 145.01Z" fill="white"/>
<path d="M364.46 164.46C364.46 171.35 325.99 171.35 325.99 164.46L326 156.43C327.52 145.46 361.33 144.99 364.46 156.43V164.46Z" fill="white"/>
<path d="M361.1 68.54H153.65V82.01H361.1V68.54Z" fill="#99B5FF"/>
<path d="M315.98 86.72H192.05V100.19H315.98V86.72Z" fill="#99B5FF"/>
<path d="M445.93 162.8H426.24V175.8H445.93V162.8Z" fill="#0047FF"/>
<path d="M445.93 145.47H426.24V158.47H445.93V145.47Z" fill="#99B5FF"/>
<path d="M445.93 180.78H426.24V221.38H445.93V180.78Z" fill="#162753"/>
<path d="M421.08 162.8H401.39V175.8H421.08V162.8Z" fill="#0047FF"/>
<path d="M421.08 145.47H401.39V158.47H421.08V145.47Z" fill="#0047FF"/>
<path d="M421.08 128.26H401.39V141.26H421.08V128.26Z" fill="#99B5FF"/>
<path d="M421.08 110.93H401.39V123.93H421.08V110.93Z" fill="#99B5FF"/>
<path d="M421.08 180.78H401.39V221.38H421.08V180.78Z" fill="#162753"/>
<path d="M471.43 180.46H451.74V193.46H471.43V180.46Z" fill="#0047FF"/>
<path d="M471.43 163.12H451.74V176.12H471.43V163.12Z" fill="#99B5FF"/>
<path d="M493.79 208.38H474.1V221.38H493.79V208.38Z" fill="#162753"/>
<path d="M471.43 198.43H451.74V221.37H471.43V198.43Z" fill="#162753"/>
<path d="M51.9502 217.62H3.46021C3.56021 215.99 4.97021 214.7 6.70021 214.7H48.7102C50.4402 214.7 51.8602 215.99 51.9502 217.62Z" fill="#99B5FF"/>
<path d="M51.8901 218.52H27.5001H3.13012C3.12012 218.57 3.12012 218.61 3.12012 218.66V225.99C3.12012 227.19 4.58012 228.16 6.39012 228.16H27.5001H48.6201C50.4301 228.16 51.8901 227.19 51.8901 225.99V218.66C51.9001 218.61 51.9001 218.57 51.8901 218.52Z" fill="#0047FF"/>
<path d="M49.26 190.67H0.76001C0.86001 189.04 2.27001 187.75 4.00001 187.75H46.01C47.75 187.75 49.16 189.04 49.26 190.67Z" fill="#99B5FF"/>
<path d="M49.1899 191.57H24.8099H0.439931C0.429931 191.62 0.429932 191.66 0.429932 191.71V199.04C0.429932 200.24 1.88993 201.21 3.69993 201.21H24.8099H45.9299C47.7399 201.21 49.1999 200.24 49.1999 199.04V191.71C49.1999 191.66 49.1999 191.62 49.1899 191.57Z" fill="#0047FF"/>
<path d="M49.26 204.15H0.76001C0.86001 202.52 2.27001 201.23 4.00001 201.23H46.01C47.75 201.22 49.16 202.52 49.26 204.15Z" fill="#99B5FF"/>
<path d="M49.1899 205.05H24.8099H0.439931C0.429931 205.1 0.429932 205.14 0.429932 205.19V212.52C0.429932 213.72 1.88993 214.69 3.69993 214.69H24.8099H45.9299C47.7399 214.69 49.1999 213.72 49.1999 212.52V205.19C49.1999 205.14 49.1999 205.09 49.1899 205.05Z" fill="#0047FF"/>
<path d="M144.79 226.95L137.42 203.48H34.9399L28.9699 226.95C28.5799 228.46 29.4999 229.99 30.7799 229.99H142.56C144.13 229.99 145.26 228.46 144.79 226.95ZM42.2899 216.74L37.9099 212.36L42.2899 208L46.6499 212.36L42.2899 216.74Z" fill="#99B5FF"/>
<path d="M46.6599 212.36L42.2899 216.74L37.9199 212.36L42.2899 208L46.6599 212.36Z" fill="white"/>
<path d="M159.39 199.44H47.61C46.33 199.44 45.41 197.9 45.8 196.4L51.77 172.93H154.25L161.62 196.4C162.1 197.91 160.97 199.44 159.39 199.44Z" fill="#99B5FF"/>
<path d="M59.134 181.477L54.7642 185.847L59.1341 190.217L63.5039 185.847L59.134 181.477Z" fill="white"/>
<path d="M400.5 58.32L404.02 88.67L410.81 82.16L418.91 86.95L415.39 56.6L400.5 58.32Z" fill="white" stroke="#0047FF" stroke-miterlimit="10"/>
<path d="M413.58 53.51L441.66 79.5L432.27 80.17L430.4 89.39L402.32 63.4L413.58 53.51Z" fill="white" stroke="#0047FF" stroke-miterlimit="10"/>
<path d="M402.804 69.8543C415.243 67.5087 423.426 55.5232 421.08 43.0838C418.735 30.6444 406.749 22.4618 394.31 24.8074C381.87 27.153 373.688 39.1385 376.033 51.5779C378.379 64.0173 390.364 72.1999 402.804 69.8543Z" fill="white" stroke="#0047FF" stroke-miterlimit="10"/>
<path d="M422.24 38.77C423.35 37.88 423.77 36.33 423.17 34.97C422.53 33.54 420.98 32.81 419.5 33.16C420.1 32.27 420.25 31.11 419.78 30.06C419.06 28.45 417.18 27.72 415.57 28.43C415.78 27.73 415.75 26.95 415.43 26.22C414.71 24.6 412.82 23.88 411.2 24.59C410.99 24.68 410.8 24.79 410.62 24.92C410.63 24.46 410.55 23.99 410.35 23.54C409.63 21.92 407.74 21.2 406.12 21.91C405.67 22.11 405.29 22.4 404.99 22.75C404.94 22.54 404.88 22.32 404.78 22.12C404.06 20.5 402.17 19.78 400.55 20.49C399.83 20.81 399.28 21.37 398.97 22.03C398.25 20.43 396.36 19.71 394.75 20.42C393.7 20.89 393.03 21.85 392.88 22.91C392.02 21.66 390.38 21.16 388.94 21.8C387.58 22.4 386.85 23.84 387.08 25.24C386.17 24.35 384.78 24.06 383.55 24.61C382.03 25.28 381.3 26.99 381.81 28.53C381 28.16 380.04 28.12 379.17 28.51C377.55 29.23 376.83 31.12 377.54 32.74C377.58 32.84 377.63 32.93 377.68 33.02C377.09 32.93 376.48 33 375.9 33.26C374.28 33.98 373.56 35.87 374.27 37.49C374.41 37.81 374.61 38.1 374.84 38.35C374.5 38.38 374.17 38.47 373.84 38.61C372.22 39.33 371.5 41.22 372.21 42.84C372.47 43.42 372.88 43.89 373.37 44.21C373.27 44.24 373.17 44.28 373.08 44.32C371.46 45.04 370.74 46.93 371.45 48.55C371.84 49.43 372.58 50.04 373.43 50.3C372.02 51.11 371.42 52.86 372.1 54.38C372.65 55.61 373.88 56.33 375.15 56.28C374.04 57.17 373.62 58.72 374.22 60.08C374.86 61.51 376.41 62.24 377.89 61.89C377.29 62.78 377.14 63.94 377.61 64.99C378.33 66.6 380.21 67.33 381.82 66.62C381.61 67.32 381.64 68.1 381.96 68.83C382.68 70.45 384.57 71.17 386.19 70.46C386.4 70.37 386.59 70.26 386.77 70.13C386.76 70.59 386.84 71.06 387.04 71.51C387.76 73.13 389.65 73.85 391.27 73.14C391.72 72.94 392.1 72.65 392.4 72.3C392.45 72.51 392.51 72.73 392.61 72.93C393.33 74.55 395.22 75.27 396.84 74.56C397.56 74.24 398.11 73.68 398.42 73.02C399.14 74.62 401.03 75.34 402.64 74.63C403.69 74.16 404.36 73.2 404.51 72.14C405.37 73.39 407.01 73.89 408.45 73.25C409.81 72.65 410.54 71.21 410.31 69.81C411.22 70.7 412.61 70.99 413.84 70.44C415.36 69.77 416.09 68.06 415.58 66.52C416.39 66.89 417.35 66.93 418.22 66.54C419.84 65.82 420.56 63.93 419.85 62.31C419.81 62.21 419.76 62.12 419.71 62.03C420.3 62.12 420.91 62.05 421.49 61.79C423.11 61.07 423.83 59.18 423.12 57.56C422.98 57.24 422.78 56.95 422.55 56.7C422.89 56.67 423.22 56.58 423.55 56.44C425.17 55.72 425.89 53.83 425.18 52.21C424.92 51.63 424.51 51.16 424.02 50.84C424.12 50.81 424.22 50.77 424.31 50.73C425.93 50.01 426.65 48.12 425.94 46.5C425.55 45.62 424.81 45.01 423.96 44.75C425.37 43.94 425.97 42.19 425.29 40.67C424.74 39.43 423.51 38.72 422.24 38.77ZM407.83 68.03C396.5 73.07 383.24 67.96 378.2 56.63C373.16 45.3 378.27 32.04 389.6 27C400.93 21.97 414.19 27.07 419.23 38.4C424.26 49.73 419.16 63 407.83 68.03Z" fill="#0047FF"/>
<path d="M381.5 49.13L394.5 61.13C400.33 51.96 406.17 42.8 412 33.63" stroke="#99B5FF" stroke-width="5" stroke-miterlimit="10"/>
</svg>
